# This file uses centimeters as units for non-parametric coordinates.

mtllib cow-platform.mtl
v 5.706343 -0.750000 -1.854103
v 4.854105 -0.750000 -3.526714
v 3.526714 -0.750000 -4.854105
v 1.854103 -0.750000 -5.706342
v 0.000000 -0.750000 -6.000003
v -1.854103 -0.750000 -5.706342
v -3.526713 -0.750000 -4.854104
v -4.854104 -0.750000 -3.526712
v -5.706341 -0.750000 -1.854102
v -6.000001 -0.750000 0.000000
v -5.706341 -0.750000 1.854102
v -4.854103 -0.750000 3.526712
v -3.526712 -0.750000 4.854103
v -1.854102 -0.750000 5.706340
v -0.000000 -0.750000 6.000001
v 1.854102 -0.750000 5.706340
v 3.526711 -0.750000 4.854102
v 4.854102 -0.750000 3.526712
v 5.706339 -0.750000 1.854102
v 6.000000 -0.750000 0.000000
v 5.706343 0.750000 -1.854103
v 4.854105 0.750000 -3.526714
v 3.526714 0.750000 -4.854105
v 1.854103 0.750000 -5.706342
v 0.000000 0.750000 -6.000003
v -1.854103 0.750000 -5.706342
v -3.526713 0.750000 -4.854104
v -4.854104 0.750000 -3.526712
v -5.706341 0.750000 -1.854102
v -6.000001 0.750000 0.000000
v -5.706341 0.750000 1.854102
v -4.854103 0.750000 3.526712
v -3.526712 0.750000 4.854103
v -1.854102 0.750000 5.706340
v -0.000000 0.750000 6.000001
v 1.854102 0.750000 5.706340
v 3.526711 0.750000 4.854102
v 4.854102 0.750000 3.526712
v 5.706339 0.750000 1.854102
v 6.000000 0.750000 0.000000
v 0.000000 -0.750000 0.000000
v 5.451694 1.295175 -1.771363
v 4.637488 1.295175 -3.369332
v 3.369332 1.295175 -4.637488
v 1.771363 1.295175 -5.451694
v 0.000000 1.295175 -5.732250
v -1.771363 1.295175 -5.451694
v -3.369332 1.295175 -4.637487
v -4.637487 1.295175 -3.369331
v -5.451693 1.295175 -1.771362
v -5.732249 1.295175 0.000000
v -5.451693 1.295175 1.771362
v -4.637486 1.295175 3.369331
v -3.369331 1.295175 4.637486
v -1.771362 1.295175 5.451692
v -0.000000 1.295175 5.732248
v 1.771362 1.295175 5.451692
v 3.369330 1.295175 4.637486
v 4.637486 1.295175 3.369331
v 5.451691 1.295175 1.771362
v 5.732247 1.295175 -0.000000
v 5.197598 1.295175 -1.688802
v 4.421340 1.295175 -3.212292
v 3.212292 1.295175 -4.421340
v 1.688802 1.295175 -5.197597
v 0.000000 1.295175 -5.465076
v -1.688802 1.295175 -5.197597
v -3.212291 1.295175 -4.421340
v -4.421339 1.295175 -3.212291
v -5.197596 1.295175 -1.688801
v -5.465076 1.295175 0.000000
v -5.197596 1.295175 1.688801
v -4.421339 1.295175 3.212291
v -3.212291 1.295175 4.421339
v -1.688801 1.295175 5.197595
v -0.000000 1.295175 5.465075
v 1.688801 1.295175 5.197595
v 3.212290 1.295175 4.421339
v 4.421338 1.295175 3.212290
v 5.197595 1.295175 1.688801
v 5.465075 1.295175 -0.000000
v 4.888337 0.766403 -1.588317
v 4.158268 0.766403 -3.021158
v 3.021158 0.766403 -4.158268
v 1.588317 0.766403 -4.888337
v 0.000000 0.766403 -5.139901
v -1.588317 0.766403 -4.888336
v -3.021158 0.766403 -4.158267
v -4.158267 0.766403 -3.021158
v -4.888335 0.766403 -1.588316
v -5.139901 0.766403 0.000000
v -4.888335 0.766403 1.588316
v -4.158267 0.766403 3.021157
v -3.021157 0.766403 4.158267
v -1.588316 0.766403 4.888335
v -0.000000 0.766403 5.139900
v 1.588316 0.766403 4.888335
v 3.021157 0.766403 4.158267
v 4.158266 0.766403 3.021157
v 4.888334 0.766403 1.588316
v 5.139899 0.766403 -0.000000
v 4.888337 -0.396224 -1.588317
v 4.158268 -0.396224 -3.021158
v -0.000000 -0.396224 -0.000000
v 3.021158 -0.396224 -4.158268
v 1.588317 -0.396224 -4.888337
v -0.000000 -0.396224 -5.139901
v -1.588317 -0.396224 -4.888336
v -3.021158 -0.396224 -4.158267
v -4.158267 -0.396224 -3.021158
v -4.888335 -0.396224 -1.588316
v -5.139901 -0.396224 0.000000
v -4.888335 -0.396224 1.588316
v -4.158267 -0.396224 3.021157
v -3.021157 -0.396224 4.158267
v -1.588316 -0.396224 4.888335
v -0.000000 -0.396224 5.139900
v 1.588316 -0.396224 4.888335
v 3.021157 -0.396224 4.158267
v 4.158266 -0.396224 3.021157
v 4.888334 -0.396224 1.588316
v 5.139899 -0.396224 0.000000
v 0.000000 1.295175 -5.465076
v -1.688802 1.295175 -5.197597
v -1.588317 0.766403 -4.888336
v 0.000000 0.766403 -5.139901
v -5.465076 1.295175 0.000000
v -5.197596 1.295175 1.688801
v -4.888335 0.766403 1.588316
v -5.139901 0.766403 0.000000
v -0.000000 1.295175 5.465075
v 1.688801 1.295175 5.197595
v 1.588316 0.766403 4.888335
v -0.000000 0.766403 5.139900
v 5.465075 1.295175 -0.000000
v 5.197598 1.295175 -1.688802
v 4.888337 0.766403 -1.588317
v 5.139899 0.766403 -0.000000
v 5.451694 1.877311 -1.771363
v 4.637488 1.877311 -3.369332
v 4.421340 1.877311 -3.212292
v 5.197598 1.877311 -1.688802
v 3.369332 1.877311 -4.637488
v 1.771363 1.877311 -5.451694
v 1.688802 1.877311 -5.197597
v 3.212292 1.877311 -4.421340
v 0.000000 1.877311 -5.732250
v -1.771363 1.877311 -5.451694
v -1.688802 1.877311 -5.197597
v 0.000000 1.877311 -5.465076
v -3.369332 1.877311 -4.637487
v -4.637487 1.877311 -3.369331
v -4.421339 1.877311 -3.212291
v -3.212291 1.877311 -4.421340
v -5.451693 1.877311 -1.771362
v -5.732249 1.877311 0.000000
v -5.465076 1.877311 0.000000
v -5.197596 1.877311 -1.688801
v -5.451693 1.877311 1.771362
v -4.637486 1.877311 3.369331
v -4.421339 1.877311 3.212291
v -5.197596 1.877311 1.688801
v -3.369331 1.877311 4.637486
v -1.771362 1.877311 5.451692
v -1.688801 1.877311 5.197595
v -3.212291 1.877311 4.421339
v -0.000000 1.877311 5.732248
v 1.771362 1.877311 5.451692
v 1.688801 1.877311 5.197595
v -0.000000 1.877311 5.465075
v 3.369330 1.877311 4.637486
v 4.637486 1.877311 3.369331
v 4.421338 1.877311 3.212290
v 3.212290 1.877311 4.421339
v 5.451691 1.877311 1.771362
v 5.732247 1.877311 -0.000000
v 5.465075 1.877311 -0.000000
v 5.197595 1.877311 1.688801
v 5.357872 -0.136667 -2.538015
v 5.202576 -0.136667 -2.842802
v 5.202576 0.136667 -2.842802
v 5.357872 0.136667 -2.538015
v 4.311350 -0.136667 -4.069469
v 4.069469 -0.136667 -4.311350
v 4.069469 0.136667 -4.311350
v 4.311350 0.136667 -4.069469
v 2.842802 -0.136667 -5.202576
v 2.538015 -0.136667 -5.357872
v 2.538015 0.136667 -5.357872
v 2.842802 0.136667 -5.202576
v 1.095981 -0.136667 -5.826416
v 0.758122 -0.136667 -5.879928
v 0.758122 0.136667 -5.879928
v 1.095981 0.136667 -5.826416
v -0.758122 -0.136667 -5.879928
v -1.095981 -0.136667 -5.826417
v -1.095981 0.136667 -5.826417
v -0.758122 0.136667 -5.879928
v -2.538014 -0.136667 -5.357871
v -2.842801 -0.136667 -5.202575
v -2.842801 0.136667 -5.202575
v -2.538014 0.136667 -5.357871
v -4.069468 -0.136667 -4.311349
v -4.311348 -0.136667 -4.069468
v -4.311348 0.136667 -4.069468
v -4.069468 0.136667 -4.311349
v -5.202574 -0.136667 -2.842801
v -5.357870 -0.136667 -2.538014
v -5.357870 0.136667 -2.538014
v -5.202574 0.136667 -2.842801
v -5.826415 -0.136667 -1.095980
v -5.879927 -0.136667 -0.758122
v -5.879927 0.136667 -0.758122
v -5.826415 0.136667 -1.095980
v -5.879927 -0.136667 0.758122
v -5.826415 -0.136667 1.095980
v -5.826415 0.136667 1.095980
v -5.879927 0.136667 0.758122
v -5.357870 -0.136667 2.538014
v -5.202574 -0.136667 2.842801
v -5.202574 0.136667 2.842801
v -5.357870 0.136667 2.538014
v -4.311348 -0.136667 4.069467
v -4.069468 -0.136667 4.311347
v -4.069468 0.136667 4.311347
v -4.311348 0.136667 4.069467
v -2.842801 -0.136667 5.202572
v -2.538014 -0.136667 5.357869
v -2.538014 0.136667 5.357869
v -2.842801 0.136667 5.202572
v -1.095981 -0.136667 5.826415
v -0.758122 -0.136667 5.879926
v -0.758122 0.136667 5.879926
v -1.095981 0.136667 5.826415
v 0.758121 -0.136667 5.879926
v 1.095980 -0.136667 5.826414
v 1.095980 0.136667 5.826414
v 0.758121 0.136667 5.879926
v 2.538013 -0.136667 5.357869
v 2.842800 -0.136667 5.202573
v 2.842800 0.136667 5.202573
v 2.538013 0.136667 5.357869
v 4.069467 -0.136667 4.311347
v 4.311347 -0.136667 4.069467
v 4.311347 0.136667 4.069467
v 4.069467 0.136667 4.311347
v 5.202573 -0.136667 2.842801
v 5.357869 -0.136667 2.538014
v 5.357869 0.136667 2.538014
v 5.202573 0.136667 2.842801
v 5.826414 -0.136667 1.095981
v 5.879925 -0.136667 0.758122
v 5.879925 0.136667 0.758122
v 5.826414 0.136667 1.095981
v 5.879926 -0.136667 -0.758122
v 5.826415 -0.136667 -1.095981
v 5.826415 0.136667 -1.095981
v 5.879926 0.136667 -0.758122
v 5.496985 -0.136667 -2.608897
v 5.341689 -0.136667 -2.913684
v 5.341689 0.136667 -2.913684
v 5.496985 0.136667 -2.608897
v 4.421751 -0.136667 -4.179871
v 4.179871 -0.136667 -4.421751
v 4.179871 0.136667 -4.421751
v 4.421751 0.136667 -4.179871
v 2.913683 -0.136667 -5.341689
v 2.608896 -0.136667 -5.496986
v 2.608896 0.136667 -5.496986
v 2.913683 0.136667 -5.341689
v 1.120405 -0.136667 -5.980625
v 0.782546 -0.136667 -6.034136
v 0.782546 0.136667 -6.034136
v 1.120405 0.136667 -5.980625
v -0.782546 -0.136667 -6.034136
v -1.120405 -0.136667 -5.980625
v -1.120405 0.136667 -5.980625
v -0.782546 0.136667 -6.034136
v -2.608896 -0.136667 -5.496984
v -2.913682 -0.136667 -5.341688
v -2.913682 0.136667 -5.341688
v -2.608896 0.136667 -5.496984
v -4.179869 -0.136667 -4.421750
v -4.421750 -0.136667 -4.179870
v -4.421750 0.136667 -4.179870
v -4.179869 0.136667 -4.421750
v -5.341688 -0.136667 -2.913682
v -5.496984 -0.136667 -2.608895
v -5.496984 0.136667 -2.608895
v -5.341688 0.136667 -2.913682
v -5.980623 -0.136667 -1.120405
v -6.034135 -0.136667 -0.782546
v -6.034135 0.136667 -0.782546
v -5.980623 0.136667 -1.120405
v -6.034135 -0.136667 0.782546
v -5.980623 -0.136667 1.120405
v -5.980623 0.136667 1.120405
v -6.034135 0.136667 0.782546
v -5.496984 -0.136667 2.608896
v -5.341687 -0.136667 2.913682
v -5.341687 0.136667 2.913682
v -5.496984 0.136667 2.608896
v -4.421749 -0.136667 4.179868
v -4.179869 -0.136667 4.421749
v -4.179869 0.136667 4.421749
v -4.421749 0.136667 4.179868
v -2.913682 -0.136667 5.341686
v -2.608896 -0.136667 5.496983
v -2.608896 0.136667 5.496983
v -2.913682 0.136667 5.341686
v -1.120404 -0.136667 5.980623
v -0.782546 -0.136667 6.034134
v -0.782546 0.136667 6.034134
v -1.120404 0.136667 5.980623
v 0.782546 -0.136667 6.034134
v 1.120404 -0.136667 5.980622
v 1.120404 0.136667 5.980622
v 0.782546 0.136667 6.034134
v 2.608895 -0.136667 5.496983
v 2.913682 -0.136667 5.341686
v 2.913682 0.136667 5.341686
v 2.608895 0.136667 5.496983
v 4.179868 -0.136667 4.421748
v 4.421748 -0.136667 4.179868
v 4.421748 0.136667 4.179868
v 4.179868 0.136667 4.421748
v 5.341686 -0.136667 2.913682
v 5.496983 -0.136667 2.608896
v 5.496983 0.136667 2.608896
v 5.341686 0.136667 2.913682
v 5.980622 -0.136667 1.120404
v 6.034133 -0.136667 0.782546
v 6.034133 0.136667 0.782546
v 5.980622 0.136667 1.120404
v 6.034134 -0.136667 -0.782546
v 5.980623 -0.136667 -1.120405
v 5.980623 0.136667 -1.120405
v 6.034134 0.136667 -0.782546
vt 0.648603 0.107966
vt 0.626409 0.064408
vt 0.591842 0.029841
vt 0.548284 0.007647
vt 0.500000 -0.000000
vt 0.451716 0.007647
vt 0.408159 0.029841
vt 0.373591 0.064409
vt 0.351397 0.107966
vt 0.343750 0.156250
vt 0.351397 0.204534
vt 0.373591 0.248091
vt 0.408159 0.282659
vt 0.451716 0.304853
vt 0.500000 0.312500
vt 0.548284 0.304853
vt 0.591841 0.282659
vt 0.626409 0.248091
vt 0.648603 0.204534
vt 0.656250 0.156250
vt 0.375000 0.312500
vt 0.387500 0.312500
vt 0.400000 0.312500
vt 0.412500 0.312500
vt 0.425000 0.312500
vt 0.437500 0.312500
vt 0.450000 0.312500
vt 0.462500 0.312500
vt 0.475000 0.312500
vt 0.487500 0.312500
vt 0.500000 0.312500
vt 0.512500 0.312500
vt 0.525000 0.312500
vt 0.537500 0.312500
vt 0.550000 0.312500
vt 0.562500 0.312500
vt 0.575000 0.312500
vt 0.587500 0.312500
vt 0.600000 0.312500
vt 0.612500 0.312500
vt 0.625000 0.312500
vt 0.375000 0.687500
vt 0.387500 0.687500
vt 0.400000 0.687500
vt 0.412500 0.687500
vt 0.425000 0.687500
vt 0.437500 0.687500
vt 0.450000 0.687500
vt 0.462500 0.687500
vt 0.475000 0.687500
vt 0.487500 0.687500
vt 0.500000 0.687500
vt 0.512500 0.687500
vt 0.525000 0.687500
vt 0.537500 0.687500
vt 0.550000 0.687500
vt 0.562500 0.687500
vt 0.575000 0.687500
vt 0.587500 0.687500
vt 0.600000 0.687500
vt 0.612500 0.687500
vt 0.625000 0.687500
vt 0.648603 0.795466
vt 0.626409 0.751908
vt 0.591842 0.717341
vt 0.548284 0.695147
vt 0.500000 0.687500
vt 0.451716 0.695147
vt 0.408159 0.717341
vt 0.373591 0.751909
vt 0.351397 0.795466
vt 0.343750 0.843750
vt 0.351397 0.892034
vt 0.373591 0.935591
vt 0.408159 0.970159
vt 0.451716 0.992353
vt 0.500000 1.000000
vt 0.548284 0.992353
vt 0.591841 0.970159
vt 0.626409 0.935591
vt 0.648603 0.892034
vt 0.656250 0.843750
vt 0.500000 0.156250
vt 0.500000 0.843750
vt 0.648603 0.892034
vt 0.626409 0.935591
vt 0.591841 0.970159
vt 0.548284 0.992353
vt 0.500000 1.000000
vt 0.451716 0.992353
vt 0.408159 0.970159
vt 0.373591 0.935591
vt 0.351397 0.892034
vt 0.343750 0.843750
vt 0.351397 0.795466
vt 0.373591 0.751909
vt 0.408159 0.717341
vt 0.451716 0.695147
vt 0.500000 0.687500
vt 0.548284 0.695147
vt 0.591842 0.717341
vt 0.626409 0.751908
vt 0.648603 0.795466
vt 0.656250 0.843750
vt 0.648603 0.892034
vt 0.626409 0.935591
vt 0.591841 0.970159
vt 0.548284 0.992353
vt 0.500000 1.000000
vt 0.451716 0.992353
vt 0.408159 0.970159
vt 0.373591 0.935591
vt 0.351397 0.892034
vt 0.343750 0.843750
vt 0.351397 0.795466
vt 0.373591 0.751909
vt 0.408159 0.717341
vt 0.451716 0.695147
vt 0.500000 0.687500
vt 0.548284 0.695147
vt 0.591842 0.717341
vt 0.626409 0.751908
vt 0.648603 0.795466
vt 0.656250 0.843750
vt 0.648603 0.892034
vt 0.626409 0.935591
vt 0.591841 0.970159
vt 0.548284 0.992353
vt 0.500000 1.000000
vt 0.451716 0.992353
vt 0.408159 0.970159
vt 0.373591 0.935591
vt 0.351397 0.892034
vt 0.343750 0.843750
vt 0.351397 0.795466
vt 0.373591 0.751909
vt 0.408159 0.717341
vt 0.451716 0.695147
vt 0.500000 0.687500
vt 0.548284 0.695147
vt 0.591842 0.717341
vt 0.626409 0.751908
vt 0.648603 0.795466
vt 0.656250 0.843750
vt 0.648603 0.892034
vt 0.626409 0.935591
vt 0.591841 0.970159
vt 0.548284 0.992353
vt 0.500000 1.000000
vt 0.451716 0.992353
vt 0.408159 0.970159
vt 0.373591 0.935591
vt 0.351397 0.892034
vt 0.343750 0.843750
vt 0.351397 0.795466
vt 0.373591 0.751909
vt 0.408159 0.717341
vt 0.451716 0.695147
vt 0.500000 0.687500
vt 0.548284 0.695147
vt 0.591842 0.717341
vt 0.626409 0.751908
vt 0.648603 0.795466
vt 0.656250 0.843750
vt 0.500000 1.000000
vt 0.451716 0.992353
vt 0.451716 0.992353
vt 0.500000 1.000000
vt 0.343750 0.843750
vt 0.351397 0.795466
vt 0.351397 0.795466
vt 0.343750 0.843750
vt 0.500000 0.687500
vt 0.548284 0.695147
vt 0.548284 0.695147
vt 0.500000 0.687500
vt 0.656250 0.843750
vt 0.648603 0.892034
vt 0.648603 0.892034
vt 0.656250 0.843750
vt 0.648603 0.892034
vt 0.626409 0.935591
vt 0.626409 0.935591
vt 0.648603 0.892034
vt 0.591841 0.970159
vt 0.548284 0.992353
vt 0.548284 0.992353
vt 0.591841 0.970159
vt 0.500000 1.000000
vt 0.451716 0.992353
vt 0.451716 0.992353
vt 0.500000 1.000000
vt 0.408159 0.970159
vt 0.373591 0.935591
vt 0.373591 0.935591
vt 0.408159 0.970159
vt 0.351397 0.892034
vt 0.343750 0.843750
vt 0.343750 0.843750
vt 0.351397 0.892034
vt 0.351397 0.795466
vt 0.373591 0.751909
vt 0.373591 0.751909
vt 0.351397 0.795466
vt 0.408159 0.717341
vt 0.451716 0.695147
vt 0.451716 0.695147
vt 0.408159 0.717341
vt 0.500000 0.687500
vt 0.548284 0.695147
vt 0.548284 0.695147
vt 0.500000 0.687500
vt 0.591842 0.717341
vt 0.626409 0.751908
vt 0.626409 0.751908
vt 0.591842 0.717341
vt 0.648603 0.795466
vt 0.656250 0.843750
vt 0.656250 0.843750
vt 0.648603 0.795466
vt 0.375000 0.312500
vt 0.387500 0.312500
vt 0.387500 0.687500
vt 0.375000 0.687500
vt 0.387500 0.312500
vt 0.400000 0.312500
vt 0.400000 0.687500
vt 0.387500 0.687500
vt 0.400000 0.312500
vt 0.412500 0.312500
vt 0.412500 0.687500
vt 0.400000 0.687500
vt 0.412500 0.312500
vt 0.425000 0.312500
vt 0.425000 0.687500
vt 0.412500 0.687500
vt 0.425000 0.312500
vt 0.437500 0.312500
vt 0.437500 0.687500
vt 0.425000 0.687500
vt 0.437500 0.312500
vt 0.450000 0.312500
vt 0.450000 0.687500
vt 0.437500 0.687500
vt 0.450000 0.312500
vt 0.462500 0.312500
vt 0.462500 0.687500
vt 0.450000 0.687500
vt 0.462500 0.312500
vt 0.475000 0.312500
vt 0.475000 0.687500
vt 0.462500 0.687500
vt 0.475000 0.312500
vt 0.487500 0.312500
vt 0.487500 0.687500
vt 0.475000 0.687500
vt 0.487500 0.312500
vt 0.500000 0.312500
vt 0.500000 0.687500
vt 0.487500 0.687500
vt 0.500000 0.312500
vt 0.512500 0.312500
vt 0.512500 0.687500
vt 0.500000 0.687500
vt 0.512500 0.312500
vt 0.525000 0.312500
vt 0.525000 0.687500
vt 0.512500 0.687500
vt 0.525000 0.312500
vt 0.537500 0.312500
vt 0.537500 0.687500
vt 0.525000 0.687500
vt 0.537500 0.312500
vt 0.550000 0.312500
vt 0.550000 0.687500
vt 0.537500 0.687500
vt 0.550000 0.312500
vt 0.562500 0.312500
vt 0.562500 0.687500
vt 0.550000 0.687500
vt 0.562500 0.312500
vt 0.575000 0.312500
vt 0.575000 0.687500
vt 0.562500 0.687500
vt 0.575000 0.312500
vt 0.587500 0.312500
vt 0.587500 0.687500
vt 0.575000 0.687500
vt 0.587500 0.312500
vt 0.600000 0.312500
vt 0.600000 0.687500
vt 0.587500 0.687500
vt 0.600000 0.312500
vt 0.612500 0.312500
vt 0.612500 0.687500
vt 0.600000 0.687500
vt 0.612500 0.312500
vt 0.625000 0.312500
vt 0.625000 0.687500
vt 0.612500 0.687500
vt 0.375000 0.312500
vt 0.387500 0.312500
vt 0.387500 0.687500
vt 0.375000 0.687500
vt 0.400000 0.312500
vt 0.400000 0.687500
vt 0.412500 0.312500
vt 0.412500 0.687500
vt 0.425000 0.312500
vt 0.425000 0.687500
vt 0.437500 0.312500
vt 0.437500 0.687500
vt 0.450000 0.312500
vt 0.450000 0.687500
vt 0.462500 0.312500
vt 0.462500 0.687500
vt 0.475000 0.312500
vt 0.475000 0.687500
vt 0.487500 0.312500
vt 0.487500 0.687500
vt 0.500000 0.312500
vt 0.500000 0.687500
vt 0.512500 0.312500
vt 0.512500 0.687500
vt 0.525000 0.312500
vt 0.525000 0.687500
vt 0.537500 0.312500
vt 0.537500 0.687500
vt 0.550000 0.312500
vt 0.550000 0.687500
vt 0.562500 0.312500
vt 0.562500 0.687500
vt 0.575000 0.312500
vt 0.575000 0.687500
vt 0.587500 0.312500
vt 0.587500 0.687500
vt 0.600000 0.312500
vt 0.600000 0.687500
vt 0.612500 0.312500
vt 0.612500 0.687500
vt 0.625000 0.312500
vt 0.625000 0.687500
vn 0.891007 0.000000 -0.453990
vn 0.891007 0.000000 -0.453990
vn 0.891007 0.000000 -0.453990
vn 0.891007 0.000000 -0.453990
vn 0.707107 0.000000 -0.707107
vn 0.707107 0.000000 -0.707107
vn 0.707107 0.000000 -0.707107
vn 0.707107 0.000000 -0.707107
vn 0.453991 0.000000 -0.891006
vn 0.453991 0.000000 -0.891006
vn 0.453991 0.000000 -0.891006
vn 0.453991 0.000000 -0.891006
vn 0.156433 0.000000 -0.987689
vn 0.156433 0.000000 -0.987689
vn 0.156433 0.000000 -0.987689
vn 0.156433 0.000000 -0.987689
vn -0.156432 0.000000 -0.987689
vn -0.156432 0.000000 -0.987689
vn -0.156432 0.000000 -0.987689
vn -0.156432 0.000000 -0.987689
vn -0.453990 0.000000 -0.891007
vn -0.453990 0.000000 -0.891007
vn -0.453990 0.000000 -0.891007
vn -0.453990 0.000000 -0.891007
vn -0.707107 0.000000 -0.707107
vn -0.707107 0.000000 -0.707107
vn -0.707107 0.000000 -0.707107
vn -0.707107 0.000000 -0.707107
vn -0.891007 0.000000 -0.453989
vn -0.891007 0.000000 -0.453989
vn -0.891007 0.000000 -0.453989
vn -0.891007 0.000000 -0.453989
vn -0.987688 0.000000 -0.156435
vn -0.987688 0.000000 -0.156435
vn -0.987688 0.000000 -0.156435
vn -0.987688 0.000000 -0.156435
vn -0.987688 0.000000 0.156435
vn -0.987688 0.000000 0.156435
vn -0.987688 0.000000 0.156435
vn -0.987688 0.000000 0.156435
vn -0.891007 0.000000 0.453990
vn -0.891007 0.000000 0.453990
vn -0.891007 0.000000 0.453990
vn -0.891007 0.000000 0.453990
vn -0.707107 0.000000 0.707106
vn -0.707107 0.000000 0.707106
vn -0.707107 0.000000 0.707106
vn -0.707107 0.000000 0.707106
vn -0.453990 0.000000 0.891007
vn -0.453990 0.000000 0.891007
vn -0.453990 0.000000 0.891007
vn -0.453990 0.000000 0.891007
vn -0.156432 0.000000 0.987689
vn -0.156432 0.000000 0.987689
vn -0.156432 0.000000 0.987689
vn -0.156432 0.000000 0.987689
vn 0.156435 0.000000 0.987688
vn 0.156435 0.000000 0.987688
vn 0.156435 0.000000 0.987688
vn 0.156435 0.000000 0.987688
vn 0.453989 0.000000 0.891007
vn 0.453989 0.000000 0.891007
vn 0.453989 0.000000 0.891007
vn 0.453989 0.000000 0.891007
vn 0.707106 0.000000 0.707108
vn 0.707106 0.000000 0.707108
vn 0.707106 0.000000 0.707108
vn 0.707106 0.000000 0.707108
vn 0.891007 0.000000 0.453990
vn 0.891007 0.000000 0.453990
vn 0.891007 0.000000 0.453990
vn 0.891007 0.000000 0.453990
vn 0.987689 0.000000 0.156432
vn 0.987689 0.000000 0.156432
vn 0.987689 0.000000 0.156432
vn 0.987689 0.000000 0.156432
vn 0.987689 0.000000 -0.156432
vn 0.987689 0.000000 -0.156432
vn 0.987689 0.000000 -0.156432
vn 0.987689 0.000000 -0.156432
vn 0.000000 -1.000000 0.000000
vn 0.000000 -1.000000 0.000000
vn 0.000000 -1.000000 -0.000000
vn 0.000000 -1.000000 -0.000000
vn 0.000000 -1.000000 -0.000000
vn 0.000000 -1.000000 0.000000
vn 0.000000 -1.000000 -0.000000
vn 0.000000 -1.000000 -0.000000
vn 0.000000 -1.000000 0.000000
vn 0.000000 -1.000000 0.000000
vn 0.000000 -1.000000 0.000000
vn 0.000000 -1.000000 0.000000
vn 0.000000 -1.000000 0.000000
vn 0.000000 -1.000000 -0.000000
vn 0.000000 -1.000000 -0.000000
vn 0.000000 -1.000000 -0.000000
vn 0.000000 -1.000000 -0.000000
vn 0.000000 -1.000000 0.000000
vn 0.000000 -1.000000 0.000000
vn 0.000000 -1.000000 0.000000
vn 0.000000 -1.000000 0.000000
vn 0.000000 1.000000 -0.000000
vn 0.000000 1.000000 -0.000000
vn 0.000000 1.000000 0.000000
vn 0.000000 1.000000 -0.000000
vn 0.000000 1.000000 -0.000000
vn 0.000000 1.000000 -0.000000
vn 0.000000 1.000000 -0.000000
vn 0.000000 1.000000 0.000000
vn 0.000000 1.000000 0.000000
vn 0.000000 1.000000 -0.000000
vn 0.000000 1.000000 0.000000
vn 0.000000 1.000000 0.000000
vn -0.000000 1.000000 -0.000000
vn -0.000000 1.000000 -0.000000
vn 0.000000 1.000000 0.000000
vn 0.000000 1.000000 0.000000
vn -0.000000 1.000000 0.000000
vn -0.000000 1.000000 0.000000
vn 0.000000 1.000000 -0.000000
vn 0.000000 1.000000 -0.000000
vn 0.000000 1.000000 -0.000000
vn 0.914161 0.275835 -0.297028
vn 0.777631 0.275836 -0.564982
vn 0.797321 0.310821 -0.517368
vn 0.887213 0.310821 -0.340944
vn 0.564982 0.275836 -0.777631
vn 0.517368 0.310822 -0.797321
vn 0.297028 0.275836 -0.914160
vn 0.340944 0.310822 -0.887213
vn -0.000000 0.275836 -0.961205
vn -0.050094 0.310822 -0.949147
vn -0.297029 0.275836 -0.914160
vn -0.245661 0.310822 -0.918173
vn -0.564982 0.275836 -0.777631
vn -0.598422 0.310822 -0.738432
vn -0.777631 0.275835 -0.564982
vn -0.738432 0.310821 -0.598421
vn -0.914160 0.275835 -0.297029
vn -0.918173 0.310822 -0.245661
vn -0.961205 0.275836 -0.000000
vn -0.949147 0.310822 -0.050094
vn -0.914160 0.275836 0.297029
vn -0.887213 0.310822 0.340945
vn -0.777631 0.275836 0.564982
vn -0.797321 0.310822 0.517368
vn -0.564982 0.275836 0.777631
vn -0.517368 0.310822 0.797321
vn -0.297029 0.275836 0.914160
vn -0.340945 0.310822 0.887213
vn 0.000000 0.275835 0.961205
vn 0.050094 0.310822 0.949147
vn 0.297029 0.275835 0.914160
vn 0.245661 0.310822 0.918172
vn 0.564982 0.275835 0.777631
vn 0.598422 0.310821 0.738432
vn 0.777631 0.275836 0.564982
vn 0.738432 0.310822 0.598421
vn 0.914160 0.275836 0.297029
vn 0.918173 0.310822 0.245661
vn 0.961205 0.275835 0.000001
vn 0.949147 0.310821 0.050094
vn 0.000000 1.000000 0.000000
vn 0.000000 1.000000 0.000000
vn 0.000000 1.000000 0.000000
vn 0.000000 1.000000 0.000000
vn 0.000000 1.000000 -0.000000
vn 0.000000 1.000000 -0.000000
vn 0.000000 1.000000 -0.000000
vn 0.000000 1.000000 -0.000000
vn 0.000000 1.000000 -0.000000
vn 0.000000 1.000000 -0.000000
vn 0.000000 1.000000 -0.000000
vn 0.000000 1.000000 -0.000000
vn 0.000000 1.000000 0.000000
vn 0.000000 1.000000 0.000000
vn 0.000000 1.000000 0.000000
vn 0.000000 1.000000 0.000000
vn 0.000000 1.000000 0.000000
vn 0.000000 1.000000 0.000000
vn 0.000000 1.000000 0.000000
vn 0.000000 1.000000 0.000000
vn 0.000000 1.000000 -0.000000
vn 0.000000 1.000000 -0.000000
vn 0.000000 1.000000 -0.000000
vn 0.000000 1.000000 -0.000000
vn 0.000000 1.000000 0.000000
vn 0.000000 1.000000 0.000000
vn 0.000000 1.000000 0.000000
vn 0.000000 1.000000 0.000000
vn 0.000000 1.000000 0.000000
vn 0.000000 1.000000 0.000000
vn 0.000000 1.000000 0.000000
vn 0.000000 1.000000 0.000000
vn 0.000000 1.000000 0.000000
vn 0.000000 1.000000 0.000000
vn 0.000000 1.000000 0.000000
vn 0.000000 1.000000 0.000000
vn 0.000000 1.000000 0.000000
vn 0.000000 1.000000 0.000000
vn 0.000000 1.000000 0.000000
vn 0.000000 1.000000 0.000000
vn 0.000000 1.000000 0.000000
vn 0.000000 1.000000 0.000000
vn 0.000000 1.000000 0.000000
vn 0.000000 1.000000 0.000000
vn 0.000000 1.000000 0.000000
vn 0.000000 1.000000 0.000000
vn 0.000000 1.000000 0.000000
vn 0.000000 1.000000 0.000000
vn 0.000000 1.000000 0.000000
vn 0.000000 1.000000 0.000000
vn 0.000000 1.000000 0.000000
vn 0.000000 1.000000 0.000000
vn 0.000000 1.000000 0.000000
vn 0.000000 1.000000 0.000000
vn 0.000000 1.000000 0.000000
vn 0.000000 1.000000 0.000000
vn 0.000000 1.000000 0.000000
vn 0.000000 1.000000 0.000000
vn 0.000000 1.000000 0.000000
vn 0.000000 1.000000 0.000000
vn 0.000000 1.000000 0.000000
vn 0.000000 1.000000 0.000000
vn 0.000000 1.000000 0.000000
vn 0.000000 1.000000 0.000000
vn 0.000000 1.000000 -0.000000
vn 0.000000 1.000000 -0.000000
vn 0.000000 1.000000 -0.000000
vn 0.000000 1.000000 -0.000000
vn 0.000000 1.000000 0.000000
vn 0.000000 1.000000 0.000000
vn 0.000000 1.000000 0.000000
vn 0.000000 1.000000 0.000000
vn 0.000000 1.000000 0.000000
vn 0.000000 1.000000 0.000000
vn 0.000000 1.000000 0.000000
vn 0.000000 1.000000 0.000000
vn 0.000000 1.000000 0.000000
vn 0.000000 1.000000 0.000000
vn 0.000000 1.000000 0.000000
vn 0.000000 1.000000 0.000000
vn -0.761537 0.519134 0.388022
vn -0.689136 0.523837 0.500686
vn -0.689136 0.523837 0.500686
vn -0.761537 0.519134 0.388022
vn -0.500686 0.523837 0.689136
vn -0.500686 0.523837 0.689136
vn -0.263226 0.523837 0.810128
vn -0.263226 0.523837 0.810128
vn -0.133703 0.519134 0.844170
vn -0.133703 0.519134 0.844170
vn 0.133704 0.519134 0.844170
vn 0.133704 0.519134 0.844170
vn 0.133704 0.519134 0.844170
vn 0.133704 0.519134 0.844170
vn 0.388023 0.519133 0.761537
vn 0.500687 0.523836 0.689136
vn 0.500687 0.523836 0.689136
vn 0.388023 0.519133 0.761537
vn 0.689136 0.523836 0.500686
vn 0.689136 0.523836 0.500686
vn 0.810128 0.523837 0.263226
vn 0.810128 0.523837 0.263226
vn 0.844170 0.519134 0.133704
vn 0.844170 0.519134 0.133704
vn 0.844170 0.519134 -0.133704
vn 0.844170 0.519134 -0.133704
vn 0.844170 0.519134 -0.133704
vn 0.844170 0.519134 -0.133704
vn 0.761537 0.519134 -0.388023
vn 0.689136 0.523836 -0.500687
vn 0.689136 0.523836 -0.500687
vn 0.761537 0.519134 -0.388023
vn 0.500687 0.523837 -0.689136
vn 0.500687 0.523837 -0.689136
vn 0.263226 0.523837 -0.810128
vn 0.263227 0.523837 -0.810127
vn 0.133704 0.519134 -0.844170
vn 0.133704 0.519134 -0.844170
vn -0.133704 0.519134 -0.844170
vn -0.133704 0.519134 -0.844170
vn -0.133704 0.519134 -0.844170
vn -0.133704 0.519134 -0.844170
vn -0.388022 0.519134 -0.761537
vn -0.500686 0.523837 -0.689136
vn -0.500687 0.523837 -0.689136
vn -0.388022 0.519133 -0.761537
vn -0.689136 0.523837 -0.500686
vn -0.689136 0.523837 -0.500686
vn -0.810128 0.523837 -0.263226
vn -0.810128 0.523837 -0.263226
vn -0.844171 0.519133 -0.133704
vn -0.844171 0.519133 -0.133704
vn -0.844171 0.519134 0.133702
vn -0.844171 0.519134 0.133702
vn -0.844171 0.519134 0.133702
vn -0.844171 0.519134 0.133702
vn -0.951057 -0.000000 0.309016
vn -0.809017 0.000000 0.587785
vn -0.809017 0.000000 0.587785
vn -0.951057 -0.000000 0.309016
vn -0.587785 0.000000 0.809017
vn -0.587785 0.000000 0.809017
vn -0.309017 0.000000 0.951057
vn -0.309017 0.000000 0.951057
vn 0.000000 0.000000 1.000000
vn 0.000000 0.000000 1.000000
vn 0.309017 0.000000 0.951057
vn 0.309017 0.000000 0.951057
vn 0.587785 0.000000 0.809017
vn 0.587785 0.000000 0.809017
vn 0.809017 0.000000 0.587785
vn 0.809017 0.000000 0.587785
vn 0.951057 0.000000 0.309017
vn 0.951057 0.000000 0.309017
vn 1.000000 0.000000 0.000000
vn 1.000000 0.000000 -0.000000
vn 0.951056 0.000000 -0.309017
vn 0.951056 0.000000 -0.309017
vn 0.809017 0.000000 -0.587785
vn 0.809017 0.000000 -0.587785
vn 0.587785 0.000000 -0.809017
vn 0.587785 0.000000 -0.809017
vn 0.309017 -0.000000 -0.951056
vn 0.309017 -0.000000 -0.951056
vn 0.000000 0.000000 -1.000000
vn 0.000000 0.000000 -1.000000
vn -0.309017 0.000000 -0.951056
vn -0.309017 0.000000 -0.951056
vn -0.587785 0.000000 -0.809017
vn -0.587785 0.000000 -0.809017
vn -0.809017 0.000000 -0.587785
vn -0.809017 0.000000 -0.587785
vn -0.951057 -0.000000 -0.309017
vn -0.951057 -0.000000 -0.309017
vn -1.000000 -0.000000 -0.000001
vn -1.000000 -0.000000 -0.000001
vn 0.000000 0.000000 0.000000
vn 0.000000 0.000000 0.000000
vn 0.000000 0.000000 0.000000
vn 0.000000 0.000000 0.000000
vn 0.000000 0.000000 0.000000
vn 0.000000 0.000000 0.000000
vn 0.000000 0.000000 0.000000
vn 0.000000 0.000000 0.000000
vn 0.000000 0.000000 0.000000
vn 0.000000 0.000000 0.000000
vn 0.000000 0.000000 0.000000
vn 0.000000 0.000000 0.000000
vn 0.000000 0.000000 0.000000
vn 0.000000 0.000000 0.000000
vn 0.000000 0.000000 0.000000
vn 0.000000 0.000000 0.000000
vn 0.000000 0.000000 0.000000
vn 0.000000 0.000000 0.000000
vn 0.000000 0.000000 0.000000
vn 0.000000 0.000000 0.000000
vn 0.000000 0.000000 0.000000
vn 0.000000 0.000000 0.000000
vn 0.000000 0.000000 0.000000
vn 0.000000 0.000000 0.000000
vn 0.000000 0.000000 0.000000
vn 0.000000 0.000000 0.000000
vn 0.000000 0.000000 0.000000
vn 0.000000 0.000000 0.000000
vn 0.000000 0.000000 0.000000
vn 0.000000 0.000000 0.000000
vn 0.000000 0.000000 0.000000
vn 0.000000 0.000000 0.000000
vn 0.000000 0.000000 0.000000
vn 0.000000 0.000000 0.000000
vn 0.000000 0.000000 0.000000
vn 0.000000 0.000000 0.000000
vn 0.000000 0.000000 0.000000
vn 0.000000 0.000000 0.000000
vn 0.000000 0.000000 0.000000
vn 0.000000 0.000000 0.000000
vn 0.000000 0.000000 0.000000
vn 0.000000 0.000000 0.000000
vn 0.000000 0.000000 0.000000
vn 0.000000 0.000000 0.000000
vn 0.000000 0.000000 0.000000
vn 0.000000 0.000000 0.000000
vn 0.000000 0.000000 0.000000
vn 0.000000 0.000000 0.000000
vn 0.000000 0.000000 0.000000
vn 0.000000 0.000000 0.000000
vn 0.000000 0.000000 0.000000
vn 0.000000 0.000000 0.000000
vn 0.000000 0.000000 0.000000
vn 0.000000 0.000000 0.000000
vn 0.000000 0.000000 0.000000
vn 0.000000 0.000000 0.000000
vn 0.000000 0.000000 0.000000
vn 0.000000 0.000000 0.000000
vn 0.000000 0.000000 0.000000
vn 0.000000 0.000000 0.000000
vn 0.000000 0.000000 0.000000
vn 0.000000 0.000000 0.000000
vn 0.000000 0.000000 0.000000
vn 0.000000 0.000000 0.000000
vn 0.891007 0.000000 -0.453991
vn 0.891007 0.000000 -0.453991
vn -0.587785 0.000000 -0.809017
vn -0.587785 0.000000 -0.809017
vn -0.587785 0.000000 -0.809017
vn -0.587785 0.000000 -0.809017
vn -0.891007 0.000000 0.453991
vn -0.891007 0.000000 0.453991
vn -0.891007 0.000000 0.453991
vn -0.891007 0.000000 0.453991
vn 0.309017 0.000000 0.951057
vn 0.309017 0.000000 0.951057
vn 0.309017 0.000000 0.951057
vn 0.309017 0.000000 0.951057
vn 0.453990 0.000000 -0.891007
vn 0.453990 0.000000 -0.891007
vn -0.951057 0.000000 -0.309017
vn -0.951057 0.000000 -0.309017
vn -0.951057 0.000000 -0.309017
vn -0.951057 0.000000 -0.309017
vn -0.453990 0.000000 0.891007
vn -0.453990 0.000000 0.891007
vn -0.453990 0.000000 0.891007
vn -0.453990 0.000000 0.891007
vn 0.809017 0.000000 0.587785
vn 0.809017 0.000000 0.587785
vn 0.809017 0.000000 0.587785
vn 0.809017 0.000000 0.587785
vn -0.156435 0.000000 -0.987688
vn -0.156435 0.000000 -0.987688
vn -0.951057 0.000000 0.309017
vn -0.951057 0.000000 0.309017
vn -0.951057 0.000000 0.309017
vn -0.951057 0.000000 0.309017
vn 0.156434 0.000000 0.987688
vn 0.156434 0.000000 0.987688
vn 0.156434 0.000000 0.987688
vn 0.156434 0.000000 0.987688
vn 1.000000 0.000000 0.000000
vn 1.000000 0.000000 0.000000
vn 1.000000 0.000000 0.000000
vn 1.000000 0.000000 0.000000
vn -0.707107 0.000000 -0.707107
vn -0.707107 0.000000 -0.707107
vn -0.587784 0.000000 0.809018
vn -0.587784 0.000000 0.809018
vn -0.587784 0.000000 0.809018
vn -0.587784 0.000000 0.809018
vn 0.707107 0.000000 0.707107
vn 0.707107 0.000000 0.707107
vn 0.707107 0.000000 0.707107
vn 0.707107 0.000000 0.707107
vn 0.809017 0.000000 -0.587786
vn 0.809017 0.000000 -0.587786
vn 0.809017 0.000000 -0.587786
vn 0.809017 0.000000 -0.587786
vn -0.987688 0.000000 -0.156434
vn -0.987688 0.000000 -0.156434
vn -0.000000 -0.000000 1.000000
vn -0.000000 -0.000000 1.000000
vn -0.000000 -0.000000 1.000000
vn -0.000000 -0.000000 1.000000
vn 0.987688 -0.000000 0.156435
vn 0.987688 -0.000000 0.156435
vn 0.987688 -0.000000 0.156435
vn 0.987688 -0.000000 0.156435
vn 0.309017 0.000000 -0.951057
vn 0.309017 0.000000 -0.951057
vn 0.309017 0.000000 -0.951057
vn 0.309017 0.000000 -0.951057
vn -0.891006 0.000000 0.453991
vn -0.891006 0.000000 0.453991
vn 0.587785 0.000000 0.809017
vn 0.587785 0.000000 0.809017
vn 0.587785 0.000000 0.809017
vn 0.587785 0.000000 0.809017
vn 0.891006 0.000000 -0.453991
vn 0.891006 0.000000 -0.453991
vn 0.891006 0.000000 -0.453991
vn 0.891006 0.000000 -0.453991
vn -0.309017 0.000000 -0.951057
vn -0.309017 0.000000 -0.951057
vn -0.309017 0.000000 -0.951057
vn -0.309017 0.000000 -0.951057
vn -0.453990 0.000000 0.891007
vn -0.453990 0.000000 0.891007
vn 0.951056 0.000000 0.309017
vn 0.951056 0.000000 0.309017
vn 0.951056 0.000000 0.309017
vn 0.951056 0.000000 0.309017
vn 0.453991 0.000000 -0.891007
vn 0.453991 0.000000 -0.891007
vn 0.453991 0.000000 -0.891007
vn 0.453991 0.000000 -0.891007
vn -0.809017 0.000000 -0.587785
vn -0.809017 0.000000 -0.587785
vn -0.809017 0.000000 -0.587785
vn -0.809017 0.000000 -0.587785
vn 0.156435 0.000000 0.987688
vn 0.156435 0.000000 0.987688
vn 0.951056 0.000000 -0.309017
vn 0.951056 0.000000 -0.309017
vn 0.951056 0.000000 -0.309017
vn 0.951056 0.000000 -0.309017
vn -0.156435 0.000000 -0.987688
vn -0.156435 0.000000 -0.987688
vn -0.156435 0.000000 -0.987688
vn -0.156435 0.000000 -0.987688
vn -1.000000 0.000000 -0.000000
vn -1.000000 0.000000 -0.000000
vn -1.000000 0.000000 -0.000000
vn -1.000000 0.000000 -0.000000
vn 0.707107 0.000000 0.707107
vn 0.707107 0.000000 0.707107
vn 0.587785 0.000000 -0.809017
vn 0.587785 0.000000 -0.809017
vn 0.587785 0.000000 -0.809017
vn 0.587785 0.000000 -0.809017
vn -0.707107 0.000000 -0.707107
vn -0.707107 0.000000 -0.707107
vn -0.707107 0.000000 -0.707107
vn -0.707107 0.000000 -0.707107
vn -0.809017 0.000000 0.587785
vn -0.809017 0.000000 0.587785
vn -0.809017 0.000000 0.587785
vn -0.809017 0.000000 0.587785
vn 0.987688 0.000000 0.156435
vn 0.987688 0.000000 0.156435
vn 0.000000 -0.000000 -1.000000
vn 0.000000 -0.000000 -1.000000
vn 0.000000 -0.000000 -1.000000
vn 0.000000 -0.000000 -1.000000
vn -0.987688 0.000001 -0.156435
vn -0.987688 0.000001 -0.156435
vn -0.987688 0.000001 -0.156435
vn -0.987688 0.000001 -0.156435
vn -0.309017 0.000000 0.951056
vn -0.309017 0.000000 0.951056
vn -0.309017 0.000000 0.951056
vn -0.309017 0.000000 0.951056
vn 0.951057 0.000000 -0.309016
vn 0.809017 -0.000000 -0.587785
vn 0.891007 0.000000 -0.453990
vn 0.891007 0.000000 -0.453991
vn 0.891007 0.000000 -0.453990
vn 0.891007 0.000000 -0.453991
vn 0.587785 -0.000000 -0.809017
vn 0.707107 -0.000001 -0.707107
vn 0.707107 -0.000001 -0.707107
vn 0.707107 0.000001 -0.707107
vn 0.707107 0.000001 -0.707107
vn 0.309016 0.000000 -0.951057
vn 0.453990 -0.000000 -0.891007
vn 0.453990 -0.000000 -0.891007
vn 0.453990 0.000000 -0.891007
vn 0.453990 0.000000 -0.891007
vn -0.000000 0.000000 -1.000000
vn 0.156434 0.000000 -0.987688
vn 0.156434 0.000000 -0.987688
vn 0.156434 -0.000000 -0.987688
vn 0.156434 -0.000000 -0.987688
vn -0.309017 0.000000 -0.951056
vn -0.156434 0.000000 -0.987688
vn -0.156434 0.000000 -0.987688
vn -0.156434 0.000000 -0.987688
vn -0.156434 0.000000 -0.987688
vn -0.587785 -0.000000 -0.809017
vn -0.453991 0.000000 -0.891006
vn -0.453991 0.000000 -0.891006
vn -0.453991 -0.000000 -0.891006
vn -0.453991 -0.000000 -0.891006
vn -0.809017 -0.000000 -0.587785
vn -0.707107 -0.000000 -0.707106
vn -0.707107 -0.000000 -0.707107
vn -0.707107 0.000000 -0.707106
vn -0.707107 0.000000 -0.707107
vn -0.951057 -0.000000 -0.309017
vn -0.891007 -0.000001 -0.453991
vn -0.891007 -0.000001 -0.453991
vn -0.891007 0.000000 -0.453991
vn -0.891007 0.000000 -0.453991
vn -1.000000 0.000000 0.000000
vn -0.987688 0.000000 -0.156434
vn -0.987688 0.000000 -0.156434
vn -0.987688 -0.000000 -0.156434
vn -0.987688 -0.000000 -0.156434
vn -0.951057 0.000000 0.309017
vn -0.987688 0.000000 0.156434
vn -0.987688 0.000000 0.156434
vn -0.987688 -0.000000 0.156434
vn -0.987688 -0.000000 0.156434
vn -0.809017 0.000000 0.587785
vn -0.891006 -0.000000 0.453991
vn -0.891006 -0.000000 0.453991
vn -0.891006 0.000000 0.453991
vn -0.891006 0.000000 0.453991
vn -0.587785 0.000000 0.809017
vn -0.707107 0.000000 0.707107
vn -0.707107 0.000000 0.707107
vn -0.707107 -0.000000 0.707107
vn -0.707107 -0.000000 0.707107
vn -0.309017 0.000000 0.951056
vn -0.453990 0.000000 0.891007
vn -0.453990 0.000000 0.891007
vn -0.453990 -0.000000 0.891007
vn -0.453990 -0.000000 0.891007
vn 0.000000 0.000000 1.000000
vn -0.156435 0.000000 0.987688
vn -0.156435 0.000000 0.987688
vn -0.156435 0.000000 0.987688
vn -0.156435 0.000000 0.987688
vn 0.309017 0.000000 0.951057
vn 0.156435 0.000000 0.987688
vn 0.156435 0.000000 0.987688
vn 0.156435 -0.000000 0.987688
vn 0.156435 -0.000000 0.987688
vn 0.587785 -0.000000 0.809017
vn 0.453991 -0.000000 0.891007
vn 0.453990 -0.000000 0.891007
vn 0.453991 0.000000 0.891007
vn 0.453990 0.000000 0.891007
vn 0.809017 -0.000000 0.587785
vn 0.707107 0.000000 0.707107
vn 0.707107 0.000000 0.707107
vn 0.707107 0.000000 0.707107
vn 0.707107 0.000000 0.707107
vn 0.951057 -0.000000 0.309017
vn 0.891007 -0.000000 0.453990
vn 0.891007 -0.000000 0.453991
vn 0.891007 0.000000 0.453990
vn 0.891007 0.000000 0.453991
vn 1.000000 0.000000 0.000001
vn 0.987688 0.000000 0.156435
vn 0.987688 0.000000 0.156434
vn 0.987688 0.000000 0.156435
vn 0.987688 0.000000 0.156434
vn 0.987689 0.000001 -0.156432
vn 0.987689 0.000001 -0.156433
vn 0.987689 -0.000001 -0.156432
vn 0.987689 -0.000001 -0.156433
vn 0.000000 -1.000000 0.000000
vn 0.000000 -1.000000 0.000000
vn 0.000000 -1.000000 0.000000
vn 0.000000 -1.000000 0.000000
vn -0.453991 0.000000 -0.891006
vn -0.453991 0.000000 -0.891006
vn -0.453991 0.000000 -0.891006
vn -0.453991 0.000000 -0.891006
vn 0.000000 1.000000 0.000000
vn 0.000000 1.000000 0.000000
vn 0.000000 1.000000 0.000000
vn 0.000000 1.000000 0.000000
vn 0.453991 0.000000 0.891006
vn 0.453991 0.000000 0.891006
vn 0.453991 0.000000 0.891006
vn 0.453991 0.000000 0.891006
vn 0.000000 -1.000000 -0.000000
vn 0.000000 -1.000000 -0.000000
vn 0.000000 -1.000000 -0.000000
vn 0.000000 -1.000000 -0.000000
vn -0.707106 0.000000 -0.707107
vn -0.707106 0.000000 -0.707107
vn -0.707106 0.000000 -0.707107
vn -0.707106 0.000000 -0.707107
vn 0.000000 1.000000 0.000000
vn 0.000000 1.000000 0.000000
vn 0.000000 1.000000 0.000000
vn 0.000000 1.000000 0.000000
vn 0.707106 0.000000 0.707107
vn 0.707106 0.000000 0.707107
vn 0.707106 0.000000 0.707107
vn 0.707106 0.000000 0.707107
vn 0.000000 -1.000000 0.000000
vn 0.000000 -1.000000 0.000000
vn 0.000000 -1.000000 0.000000
vn 0.000000 -1.000000 0.000000
vn -0.891006 0.000000 -0.453991
vn -0.891006 0.000000 -0.453991
vn -0.891006 0.000000 -0.453991
vn -0.891006 0.000000 -0.453991
vn 0.000000 1.000000 -0.000000
vn 0.000000 1.000000 -0.000000
vn 0.000000 1.000000 -0.000000
vn 0.000000 1.000000 -0.000000
vn 0.891006 0.000000 0.453991
vn 0.891006 0.000000 0.453991
vn 0.891006 0.000000 0.453991
vn 0.891006 0.000000 0.453991
vn 0.000000 -1.000000 0.000000
vn 0.000000 -1.000000 0.000000
vn 0.000000 -1.000000 0.000000
vn 0.000000 -1.000000 0.000000
vn -0.987688 0.000000 -0.156434
vn -0.987688 0.000000 -0.156434
vn -0.987688 0.000000 -0.156434
vn -0.987688 0.000000 -0.156434
vn 0.000000 1.000000 -0.000000
vn 0.000000 1.000000 -0.000000
vn 0.000000 1.000000 -0.000000
vn 0.000000 1.000000 -0.000000
vn 0.987688 0.000000 0.156434
vn 0.987688 0.000000 0.156434
vn 0.987688 0.000000 0.156434
vn 0.987688 0.000000 0.156434
vn 0.000000 -1.000000 0.000000
vn 0.000000 -1.000000 0.000000
vn 0.000000 -1.000000 0.000000
vn 0.000000 -1.000000 0.000000
vn -0.987689 0.000000 0.156432
vn -0.987689 0.000000 0.156432
vn -0.987689 0.000000 0.156432
vn -0.987689 0.000000 0.156432
vn 0.000000 1.000000 -0.000000
vn 0.000000 1.000000 -0.000000
vn 0.000000 1.000000 -0.000000
vn 0.000000 1.000000 -0.000000
vn 0.987689 0.000000 -0.156432
vn 0.987689 0.000000 -0.156432
vn 0.987689 0.000000 -0.156432
vn 0.987689 0.000000 -0.156432
vn 0.000000 -1.000000 -0.000000
vn 0.000000 -1.000000 -0.000000
vn 0.000000 -1.000000 -0.000000
vn 0.000000 -1.000000 -0.000000
vn -0.891006 0.000000 0.453991
vn -0.891006 0.000000 0.453991
vn -0.891006 0.000000 0.453991
vn -0.891006 0.000000 0.453991
vn 0.000000 1.000000 0.000000
vn 0.000000 1.000000 0.000000
vn 0.000000 1.000000 0.000000
vn 0.000000 1.000000 0.000000
vn 0.891006 0.000000 -0.453991
vn 0.891006 0.000000 -0.453991
vn 0.891006 0.000000 -0.453991
vn 0.891006 0.000000 -0.453991
vn 0.000000 -1.000000 0.000000
vn 0.000000 -1.000000 0.000000
vn 0.000000 -1.000000 0.000000
vn 0.000000 -1.000000 0.000000
vn -0.707108 0.000000 0.707106
vn -0.707108 0.000000 0.707106
vn -0.707108 0.000000 0.707106
vn -0.707108 0.000000 0.707106
vn 0.000000 1.000000 -0.000000
vn 0.000000 1.000000 -0.000000
vn 0.000000 1.000000 -0.000000
vn 0.000000 1.000000 -0.000000
vn 0.707106 0.000000 -0.707107
vn 0.707106 0.000000 -0.707107
vn 0.707106 0.000000 -0.707107
vn 0.707106 0.000000 -0.707107
vn 0.000000 -1.000000 0.000000
vn 0.000000 -1.000000 0.000000
vn 0.000000 -1.000000 0.000000
vn 0.000000 -1.000000 0.000000
vn -0.453988 0.000000 0.891008
vn -0.453988 0.000000 0.891008
vn -0.453988 0.000000 0.891008
vn -0.453988 0.000000 0.891008
vn 0.000000 1.000000 0.000000
vn 0.000000 1.000000 0.000000
vn 0.000000 1.000000 0.000000
vn 0.000000 1.000000 0.000000
vn 0.453988 0.000000 -0.891008
vn 0.453988 0.000000 -0.891008
vn 0.453988 0.000000 -0.891008
vn 0.453988 0.000000 -0.891008
vn 0.000000 -1.000000 0.000000
vn 0.000000 -1.000000 0.000000
vn 0.000000 -1.000000 0.000000
vn 0.000000 -1.000000 0.000000
vn -0.156435 0.000000 0.987688
vn -0.156435 0.000000 0.987688
vn -0.156435 0.000000 0.987688
vn -0.156435 0.000000 0.987688
vn 0.000000 1.000000 0.000000
vn 0.000000 1.000000 0.000000
vn 0.000000 1.000000 0.000000
vn 0.000000 1.000000 0.000000
vn 0.156435 0.000000 -0.987688
vn 0.156435 0.000000 -0.987688
vn 0.156435 0.000000 -0.987688
vn 0.156435 0.000000 -0.987688
vn 0.000000 -1.000000 0.000000
vn 0.000000 -1.000000 0.000000
vn 0.000000 -1.000000 0.000000
vn 0.000000 -1.000000 0.000000
vn 0.156435 0.000000 0.987688
vn 0.156435 0.000000 0.987688
vn 0.156435 0.000000 0.987688
vn 0.156435 0.000000 0.987688
vn 0.000000 1.000000 -0.000000
vn 0.000000 1.000000 -0.000000
vn 0.000000 1.000000 -0.000000
vn 0.000000 1.000000 -0.000000
vn -0.156435 0.000000 -0.987688
vn -0.156435 0.000000 -0.987688
vn -0.156435 0.000000 -0.987688
vn -0.156435 0.000000 -0.987688
vn 0.000000 -1.000000 0.000000
vn 0.000000 -1.000000 0.000000
vn 0.000000 -1.000000 0.000000
vn 0.000000 -1.000000 0.000000
vn 0.453991 0.000000 0.891006
vn 0.453991 0.000000 0.891006
vn 0.453991 0.000000 0.891006
vn 0.453991 0.000000 0.891006
vn 0.000000 1.000000 0.000000
vn 0.000000 1.000000 0.000000
vn 0.000000 1.000000 0.000000
vn 0.000000 1.000000 0.000000
vn -0.453991 0.000000 -0.891006
vn -0.453991 0.000000 -0.891006
vn -0.453991 0.000000 -0.891006
vn -0.453991 0.000000 -0.891006
vn 0.000000 -1.000000 0.000000
vn 0.000000 -1.000000 0.000000
vn 0.000000 -1.000000 0.000000
vn 0.000000 -1.000000 0.000000
vn 0.707108 0.000000 0.707106
vn 0.707108 0.000000 0.707106
vn 0.707108 0.000000 0.707106
vn 0.707108 0.000000 0.707106
vn 0.000000 1.000000 -0.000000
vn 0.000000 1.000000 -0.000000
vn 0.000000 1.000000 -0.000000
vn 0.000000 1.000000 -0.000000
vn -0.707106 0.000000 -0.707107
vn -0.707106 0.000000 -0.707107
vn -0.707106 0.000000 -0.707107
vn -0.707106 0.000000 -0.707107
vn 0.000000 -1.000000 -0.000000
vn 0.000000 -1.000000 -0.000000
vn 0.000000 -1.000000 -0.000000
vn 0.000000 -1.000000 -0.000000
vn 0.891006 0.000000 0.453991
vn 0.891006 0.000000 0.453991
vn 0.891006 0.000000 0.453991
vn 0.891006 0.000000 0.453991
vn 0.000000 1.000000 0.000000
vn 0.000000 1.000000 0.000000
vn 0.000000 1.000000 0.000000
vn 0.000000 1.000000 0.000000
vn -0.891007 0.000000 -0.453990
vn -0.891007 0.000000 -0.453990
vn -0.891007 0.000000 -0.453990
vn -0.891007 0.000000 -0.453990
vn 0.000000 -1.000000 0.000000
vn 0.000000 -1.000000 0.000000
vn 0.000000 -1.000000 0.000000
vn 0.000000 -1.000000 0.000000
vn 0.987689 0.000000 0.156431
vn 0.987689 0.000000 0.156431
vn 0.987689 0.000000 0.156431
vn 0.987689 0.000000 0.156431
vn 0.000000 1.000000 -0.000000
vn 0.000000 1.000000 -0.000000
vn 0.000000 1.000000 -0.000000
vn 0.000000 1.000000 -0.000000
vn -0.987689 0.000000 -0.156431
vn -0.987689 0.000000 -0.156431
vn -0.987689 0.000000 -0.156431
vn -0.987689 0.000000 -0.156431
vn 0.000000 -1.000000 -0.000000
vn 0.000000 -1.000000 -0.000000
vn 0.000000 -1.000000 -0.000000
vn 0.000000 -1.000000 -0.000000
vn 0.987688 0.000000 -0.156435
vn 0.987688 0.000000 -0.156435
vn 0.987688 0.000000 -0.156435
vn 0.987688 0.000000 -0.156435
vn 0.000000 1.000000 -0.000000
vn 0.000000 1.000000 -0.000000
vn 0.000000 1.000000 -0.000000
vn 0.000000 1.000000 -0.000000
vn -0.987688 0.000000 0.156435
vn -0.987688 0.000000 0.156435
vn -0.987688 0.000000 0.156435
vn -0.987688 0.000000 0.156435
vn 0.000000 -1.000000 0.000000
vn 0.000000 -1.000000 0.000000
vn 0.000000 -1.000000 0.000000
vn 0.000000 -1.000000 0.000000
vn 0.891007 0.000000 -0.453990
vn 0.891007 0.000000 -0.453990
vn 0.891007 0.000000 -0.453990
vn 0.891007 0.000000 -0.453990
vn 0.000000 1.000000 -0.000000
vn 0.000000 1.000000 -0.000000
vn 0.000000 1.000000 -0.000000
vn 0.000000 1.000000 -0.000000
vn -0.891006 0.000000 0.453991
vn -0.891006 0.000000 0.453991
vn -0.891006 0.000000 0.453991
vn -0.891006 0.000000 0.453991
vn 0.000000 -1.000000 -0.000000
vn 0.000000 -1.000000 -0.000000
vn 0.000000 -1.000000 -0.000000
vn 0.000000 -1.000000 -0.000000
vn 0.707106 0.000000 -0.707107
vn 0.707106 0.000000 -0.707107
vn 0.707106 0.000000 -0.707107
vn 0.707106 0.000000 -0.707107
vn 0.000000 1.000000 0.000000
vn 0.000000 1.000000 0.000000
vn 0.000000 1.000000 0.000000
vn 0.000000 1.000000 0.000000
vn -0.707106 0.000000 0.707107
vn -0.707106 0.000000 0.707107
vn -0.707106 0.000000 0.707107
vn -0.707106 0.000000 0.707107
vn 0.000000 -1.000000 0.000000
vn 0.000000 -1.000000 0.000000
vn 0.000000 -1.000000 0.000000
vn 0.000000 -1.000000 0.000000
vn 0.453991 0.000000 -0.891006
vn 0.453991 0.000000 -0.891006
vn 0.453991 0.000000 -0.891006
vn 0.453991 0.000000 -0.891006
vn 0.000000 1.000000 0.000000
vn 0.000000 1.000000 0.000000
vn 0.000000 1.000000 0.000000
vn 0.000000 1.000000 0.000000
vn -0.453991 0.000000 0.891006
vn -0.453991 0.000000 0.891006
vn -0.453991 0.000000 0.891006
vn -0.453991 0.000000 0.891006
vn 0.000000 -1.000000 -0.000000
vn 0.000000 -1.000000 -0.000000
vn 0.000000 -1.000000 -0.000000
vn 0.000000 -1.000000 -0.000000
vn 0.156432 0.000000 -0.987689
vn 0.156432 0.000000 -0.987689
vn 0.156432 0.000000 -0.987689
vn 0.156432 0.000000 -0.987689
vn 0.000000 1.000000 0.000000
vn 0.000000 1.000000 0.000000
vn 0.000000 1.000000 0.000000
vn 0.000000 1.000000 0.000000
vn -0.156432 0.000000 0.987689
vn -0.156432 0.000000 0.987689
vn -0.156432 0.000000 0.987689
vn -0.156432 0.000000 0.987689
vn 0.000000 -1.000000 0.000000
vn 0.000000 -1.000000 0.000000
vn 0.000000 -1.000000 0.000000
vn 0.000000 -1.000000 0.000000
vn -0.156432 0.000000 -0.987689
vn -0.156432 0.000000 -0.987689
vn -0.156432 0.000000 -0.987689
vn -0.156432 0.000000 -0.987689
vn 0.000000 1.000000 0.000000
vn 0.000000 1.000000 0.000000
vn 0.000000 1.000000 0.000000
vn 0.000000 1.000000 0.000000
vn 0.156432 0.000000 0.987689
vn 0.156432 0.000000 0.987689
vn 0.156432 0.000000 0.987689
vn 0.156432 0.000000 0.987689
s off
usemtl blinn1SG
f 259/301/1 260/302/2 261/303/3 262/304/4
f 263/302/5 264/305/6 265/306/7 266/303/8
f 267/305/9 268/307/10 269/308/11 270/306/12
f 271/307/13 272/309/14 273/310/15 274/308/16
f 275/309/17 276/311/18 277/312/19 278/310/20
f 279/311/21 280/313/22 281/314/23 282/312/24
f 283/313/25 284/315/26 285/316/27 286/314/28
f 287/315/29 288/317/30 289/318/31 290/316/32
f 291/317/33 292/319/34 293/320/35 294/318/36
f 295/319/37 296/321/38 297/322/39 298/320/40
f 299/321/41 300/323/42 301/324/43 302/322/44
f 303/323/45 304/325/46 305/326/47 306/324/48
f 307/325/49 308/327/50 309/328/51 310/326/52
f 311/327/53 312/329/54 313/330/55 314/328/56
f 315/329/57 316/331/58 317/332/59 318/330/60
f 319/331/61 320/333/62 321/334/63 322/332/64
f 323/333/65 324/335/66 325/336/67 326/334/68
f 327/335/69 328/337/70 329/338/71 330/336/72
f 331/337/73 332/339/74 333/340/75 334/338/76
f 335/339/77 336/341/78 337/342/79 338/340/80
s 1
usemtl standardSurface2SG
f 2/2/81 1/1/82 41/83/83
f 3/3/84 2/2/81 41/83/83
f 4/4/85 3/3/84 41/83/83
f 5/5/86 4/4/85 41/83/83
f 6/6/87 5/5/86 41/83/83
f 7/7/88 6/6/87 41/83/83
f 8/8/89 7/7/88 41/83/83
f 9/9/90 8/8/89 41/83/83
f 10/10/91 9/9/90 41/83/83
f 11/11/92 10/10/91 41/83/83
f 12/12/93 11/11/92 41/83/83
f 13/13/94 12/12/93 41/83/83
f 14/14/95 13/13/94 41/83/83
f 15/15/96 14/14/95 41/83/83
f 16/16/97 15/15/96 41/83/83
f 17/17/98 16/16/97 41/83/83
f 18/18/99 17/17/98 41/83/83
f 19/19/100 18/18/99 41/83/83
f 20/20/101 19/19/100 41/83/83
f 1/1/82 20/20/101 41/83/83
s 2
usemtl standardSurface3SG
f 102/145/102 103/146/103 104/84/104
f 103/146/103 105/147/105 104/84/104
f 105/147/105 106/148/106 104/84/104
f 106/148/106 107/149/107 104/84/104
f 107/149/107 108/150/108 104/84/104
f 108/150/108 109/151/109 104/84/104
f 109/151/109 110/152/110 104/84/104
f 110/152/110 111/153/111 104/84/104
f 111/153/111 112/154/112 104/84/104
f 112/154/112 113/155/113 104/84/104
f 113/155/113 114/156/114 104/84/104
f 114/156/114 115/157/115 104/84/104
f 115/157/115 116/158/116 104/84/104
f 116/158/116 117/159/117 104/84/104
f 117/159/117 118/160/118 104/84/104
f 118/160/118 119/161/119 104/84/104
f 119/161/119 120/162/120 104/84/104
f 120/162/120 121/163/121 104/84/104
f 121/163/121 122/164/122 104/84/104
f 122/164/122 102/145/102 104/84/104
s 3
usemtl standardSurface2SG
f 21/81/123 22/80/124 43/86/125 42/85/126
f 22/80/124 23/79/127 44/87/128 43/86/125
f 23/79/127 24/78/129 45/88/130 44/87/128
f 24/78/129 25/77/131 46/89/132 45/88/130
f 25/77/131 26/76/133 47/90/134 46/89/132
f 26/76/133 27/75/135 48/91/136 47/90/134
f 27/75/135 28/74/137 49/92/138 48/91/136
f 28/74/137 29/73/139 50/93/140 49/92/138
f 29/73/139 30/72/141 51/94/142 50/93/140
f 30/72/141 31/71/143 52/95/144 51/94/142
f 31/71/143 32/70/145 53/96/146 52/95/144
f 32/70/145 33/69/147 54/97/148 53/96/146
f 33/69/147 34/68/149 55/98/150 54/97/148
f 34/68/149 35/67/151 56/99/152 55/98/150
f 35/67/151 36/66/153 57/100/154 56/99/152
f 36/66/153 37/65/155 58/101/156 57/100/154
f 37/65/155 38/64/157 59/102/158 58/101/156
f 38/64/157 39/63/159 60/103/160 59/102/158
f 39/63/159 40/82/161 61/104/162 60/103/160
f 40/82/161 21/81/123 42/85/126 61/104/162
s off
f 139/181/163 140/182/164 141/183/165 142/184/166
f 43/86/167 44/87/168 64/107/169 63/106/170
f 143/185/171 144/186/172 145/187/173 146/188/174
f 45/88/175 46/89/176 66/109/177 65/108/178
f 147/189/179 148/190/180 149/191/181 150/192/182
f 47/90/183 48/91/184 68/111/185 67/110/186
f 151/193/187 152/194/188 153/195/189 154/196/190
f 49/92/191 50/93/192 70/113/193 69/112/194
f 155/197/195 156/198/196 157/199/197 158/200/198
f 51/94/199 52/95/200 72/115/201 71/114/202
f 159/201/203 160/202/204 161/203/205 162/204/206
f 53/96/207 54/97/208 74/117/209 73/116/210
f 163/205/211 164/206/212 165/207/213 166/208/214
f 55/98/215 56/99/216 76/119/217 75/118/218
f 167/209/219 168/210/220 169/211/221 170/212/222
f 57/100/223 58/101/224 78/121/225 77/120/226
f 171/213/227 172/214/228 173/215/229 174/216/230
f 59/102/231 60/103/232 80/123/233 79/122/234
f 175/217/235 176/218/236 177/219/237 178/220/238
f 61/104/239 42/85/240 62/105/241 81/124/242
s 4
f 62/105/243 63/106/244 83/126/245 82/125/246
f 63/106/244 64/107/247 84/127/248 83/126/245
f 64/107/247 65/108/249 85/128/250 84/127/248
f 65/108/249 66/109/251 86/129/252 85/128/250
s off
f 123/165/253 124/166/254 125/167/255 126/168/256
s 5
f 67/110/257 68/111/258 88/131/259 87/130/260
f 68/111/258 69/112/261 89/132/262 88/131/259
f 69/112/261 70/113/263 90/133/264 89/132/262
f 70/113/263 71/114/265 91/134/266 90/133/264
s off
f 127/169/267 128/170/268 129/171/269 130/172/270
s 6
f 72/115/271 73/116/272 93/136/273 92/135/274
f 73/116/272 74/117/275 94/137/276 93/136/273
f 74/117/275 75/118/277 95/138/278 94/137/276
f 75/118/277 76/119/279 96/139/280 95/138/278
s off
f 131/173/281 132/174/282 133/175/283 134/176/284
s 7
f 77/120/285 78/121/286 98/141/287 97/140/288
f 78/121/286 79/122/289 99/142/290 98/141/287
f 79/122/289 80/123/291 100/143/292 99/142/290
f 80/123/291 81/124/293 101/144/294 100/143/292
s off
f 135/177/295 136/178/296 137/179/297 138/180/298
s 8
f 82/125/299 83/126/300 103/146/301 102/145/302
f 83/126/300 84/127/303 105/147/304 103/146/301
f 84/127/303 85/128/305 106/148/306 105/147/304
f 85/128/305 86/129/307 107/149/308 106/148/306
f 86/129/307 87/130/309 108/150/310 107/149/308
f 87/130/309 88/131/311 109/151/312 108/150/310
f 88/131/311 89/132/313 110/152/314 109/151/312
f 89/132/313 90/133/315 111/153/316 110/152/314
f 90/133/315 91/134/317 112/154/318 111/153/316
f 91/134/317 92/135/319 113/155/320 112/154/318
f 92/135/319 93/136/321 114/156/322 113/155/320
f 93/136/321 94/137/323 115/157/324 114/156/322
f 94/137/323 95/138/325 116/158/326 115/157/324
f 95/138/325 96/139/327 117/159/328 116/158/326
f 96/139/327 97/140/329 118/160/330 117/159/328
f 97/140/329 98/141/331 119/161/332 118/160/330
f 98/141/331 99/142/333 120/162/334 119/161/332
f 99/142/333 100/143/335 121/163/336 120/162/334
f 100/143/335 101/144/337 122/164/338 121/163/336
f 101/144/337 82/125/299 102/145/302 122/164/338
s off
f 66/109/339 67/110/340 124/166/341 123/165/342
f 67/110/343 87/130/344 125/167/345 124/166/346
f 87/130/347 86/129/348 126/168/349 125/167/350
f 86/129/351 66/109/352 123/165/353 126/168/354
f 71/114/355 72/115/356 128/170/357 127/169/358
f 72/115/359 92/135/360 129/171/361 128/170/362
f 92/135/363 91/134/364 130/172/365 129/171/366
f 91/134/367 71/114/368 127/169/369 130/172/370
f 76/119/371 77/120/372 132/174/373 131/173/374
f 77/120/375 97/140/376 133/175/377 132/174/378
f 97/140/379 96/139/380 134/176/381 133/175/382
f 96/139/383 76/119/384 131/173/385 134/176/386
f 81/124/387 62/105/388 136/178/389 135/177/390
f 62/105/391 82/125/392 137/179/393 136/178/394
f 82/125/395 101/144/396 138/180/397 137/179/398
f 101/144/399 81/124/400 135/177/401 138/180/402
s 3
f 42/85/126 43/86/125 140/182/403 139/181/404
s off
f 43/86/405 63/106/406 141/183/407 140/182/408
f 63/106/409 62/105/410 142/184/411 141/183/412
f 62/105/413 42/85/414 139/181/415 142/184/416
s 3
f 44/87/128 45/88/130 144/186/417 143/185/418
s off
f 45/88/419 65/108/420 145/187/421 144/186/422
f 65/108/423 64/107/424 146/188/425 145/187/426
f 64/107/427 44/87/428 143/185/429 146/188/430
s 3
f 46/89/132 47/90/134 148/190/431 147/189/432
s off
f 47/90/433 67/110/434 149/191/435 148/190/436
f 67/110/437 66/109/438 150/192/439 149/191/440
f 66/109/441 46/89/442 147/189/443 150/192/444
s 3
f 48/91/136 49/92/138 152/194/445 151/193/446
s off
f 49/92/447 69/112/448 153/195/449 152/194/450
f 69/112/451 68/111/452 154/196/453 153/195/454
f 68/111/455 48/91/456 151/193/457 154/196/458
s 3
f 50/93/140 51/94/142 156/198/459 155/197/460
s off
f 51/94/461 71/114/462 157/199/463 156/198/464
f 71/114/465 70/113/466 158/200/467 157/199/468
f 70/113/469 50/93/470 155/197/471 158/200/472
s 3
f 52/95/144 53/96/146 160/202/473 159/201/474
s off
f 53/96/475 73/116/476 161/203/477 160/202/478
f 73/116/479 72/115/480 162/204/481 161/203/482
f 72/115/483 52/95/484 159/201/485 162/204/486
s 3
f 54/97/148 55/98/150 164/206/487 163/205/488
s off
f 55/98/489 75/118/490 165/207/491 164/206/492
f 75/118/493 74/117/494 166/208/495 165/207/496
f 74/117/497 54/97/498 163/205/499 166/208/500
s 3
f 56/99/152 57/100/154 168/210/501 167/209/502
s off
f 57/100/503 77/120/504 169/211/505 168/210/506
f 77/120/507 76/119/508 170/212/509 169/211/510
f 76/119/511 56/99/512 167/209/513 170/212/514
s 3
f 58/101/156 59/102/158 172/214/515 171/213/516
s off
f 59/102/517 79/122/518 173/215/519 172/214/520
f 79/122/521 78/121/522 174/216/523 173/215/524
f 78/121/525 58/101/526 171/213/527 174/216/528
s 3
f 60/103/160 61/104/162 176/218/529 175/217/530
s off
f 61/104/531 81/124/532 177/219/533 176/218/534
f 81/124/535 80/123/536 178/220/537 177/219/538
f 80/123/539 60/103/540 175/217/541 178/220/542
s 3
f 1/21/543 2/22/544 180/222/545 179/221/546
f 2/22/544 22/43/124 181/223/547 180/222/545
f 22/43/124 21/42/123 182/224/548 181/223/547
f 21/42/123 1/21/543 179/221/546 182/224/548
f 2/22/544 3/23/549 184/226/550 183/225/551
f 3/23/549 23/44/127 185/227/552 184/226/550
f 23/44/127 22/43/124 186/228/553 185/227/552
f 22/43/124 2/22/544 183/225/551 186/228/553
f 3/23/549 4/24/554 188/230/555 187/229/556
f 4/24/554 24/45/129 189/231/557 188/230/555
f 24/45/129 23/44/127 190/232/558 189/231/557
f 23/44/127 3/23/549 187/229/556 190/232/558
f 4/24/554 5/25/559 192/234/560 191/233/561
f 5/25/559 25/46/131 193/235/562 192/234/560
f 25/46/131 24/45/129 194/236/563 193/235/562
f 24/45/129 4/24/554 191/233/561 194/236/563
f 5/25/559 6/26/564 196/238/565 195/237/566
f 6/26/564 26/47/133 197/239/567 196/238/565
f 26/47/133 25/46/131 198/240/568 197/239/567
f 25/46/131 5/25/559 195/237/566 198/240/568
f 6/26/564 7/27/569 200/242/570 199/241/571
f 7/27/569 27/48/135 201/243/572 200/242/570
f 27/48/135 26/47/133 202/244/573 201/243/572
f 26/47/133 6/26/564 199/241/571 202/244/573
f 7/27/569 8/28/574 204/246/575 203/245/576
f 8/28/574 28/49/137 205/247/577 204/246/575
f 28/49/137 27/48/135 206/248/578 205/247/577
f 27/48/135 7/27/569 203/245/576 206/248/578
f 8/28/574 9/29/579 208/250/580 207/249/581
f 9/29/579 29/50/139 209/251/582 208/250/580
f 29/50/139 28/49/137 210/252/583 209/251/582
f 28/49/137 8/28/574 207/249/581 210/252/583
f 9/29/579 10/30/584 212/254/585 211/253/586
f 10/30/584 30/51/141 213/255/587 212/254/585
f 30/51/141 29/50/139 214/256/588 213/255/587
f 29/50/139 9/29/579 211/253/586 214/256/588
f 10/30/584 11/31/589 216/258/590 215/257/591
f 11/31/589 31/52/143 217/259/592 216/258/590
f 31/52/143 30/51/141 218/260/593 217/259/592
f 30/51/141 10/30/584 215/257/591 218/260/593
f 11/31/589 12/32/594 220/262/595 219/261/596
f 12/32/594 32/53/145 221/263/597 220/262/595
f 32/53/145 31/52/143 222/264/598 221/263/597
f 31/52/143 11/31/589 219/261/596 222/264/598
f 12/32/594 13/33/599 224/266/600 223/265/601
f 13/33/599 33/54/147 225/267/602 224/266/600
f 33/54/147 32/53/145 226/268/603 225/267/602
f 32/53/145 12/32/594 223/265/601 226/268/603
f 13/33/599 14/34/604 228/270/605 227/269/606
f 14/34/604 34/55/149 229/271/607 228/270/605
f 34/55/149 33/54/147 230/272/608 229/271/607
f 33/54/147 13/33/599 227/269/606 230/272/608
f 14/34/604 15/35/609 232/274/610 231/273/611
f 15/35/609 35/56/151 233/275/612 232/274/610
f 35/56/151 34/55/149 234/276/613 233/275/612
f 34/55/149 14/34/604 231/273/611 234/276/613
f 15/35/609 16/36/614 236/278/615 235/277/616
f 16/36/614 36/57/153 237/279/617 236/278/615
f 36/57/153 35/56/151 238/280/618 237/279/617
f 35/56/151 15/35/609 235/277/616 238/280/618
f 16/36/614 17/37/619 240/282/620 239/281/621
f 17/37/619 37/58/155 241/283/622 240/282/620
f 37/58/155 36/57/153 242/284/623 241/283/622
f 36/57/153 16/36/614 239/281/621 242/284/623
f 17/37/619 18/38/624 244/286/625 243/285/626
f 18/38/624 38/59/157 245/287/627 244/286/625
f 38/59/157 37/58/155 246/288/628 245/287/627
f 37/58/155 17/37/619 243/285/626 246/288/628
f 18/38/624 19/39/629 248/290/630 247/289/631
f 19/39/629 39/60/159 249/291/632 248/290/630
f 39/60/159 38/59/157 250/292/633 249/291/632
f 38/59/157 18/38/624 247/289/631 250/292/633
f 19/39/629 20/40/634 252/294/635 251/293/636
f 20/40/634 40/61/161 253/295/637 252/294/635
f 40/61/161 39/60/159 254/296/638 253/295/637
f 39/60/159 19/39/629 251/293/636 254/296/638
f 20/40/634 1/41/543 256/298/639 255/297/640
f 1/41/543 21/62/123 257/299/641 256/298/639
f 21/62/123 40/61/161 258/300/642 257/299/641
f 40/61/161 20/40/634 255/297/640 258/300/642
s off
usemtl blinn1SG
f 179/21/643 180/22/644 260/302/645 259/301/646
f 180/22/647 181/43/648 261/303/649 260/302/650
f 181/43/651 182/42/652 262/304/653 261/303/654
f 182/42/655 179/21/656 259/301/657 262/304/658
f 183/22/659 184/23/660 264/305/661 263/302/662
f 184/23/663 185/44/664 265/306/665 264/305/666
f 185/44/667 186/43/668 266/303/669 265/306/670
f 186/43/671 183/22/672 263/302/673 266/303/674
f 187/23/675 188/24/676 268/307/677 267/305/678
f 188/24/679 189/45/680 269/308/681 268/307/682
f 189/45/683 190/44/684 270/306/685 269/308/686
f 190/44/687 187/23/688 267/305/689 270/306/690
f 191/24/691 192/25/692 272/309/693 271/307/694
f 192/25/695 193/46/696 273/310/697 272/309/698
f 193/46/699 194/45/700 274/308/701 273/310/702
f 194/45/703 191/24/704 271/307/705 274/308/706
f 195/25/707 196/26/708 276/311/709 275/309/710
f 196/26/711 197/47/712 277/312/713 276/311/714
f 197/47/715 198/46/716 278/310/717 277/312/718
f 198/46/719 195/25/720 275/309/721 278/310/722
f 199/26/723 200/27/724 280/313/725 279/311/726
f 200/27/727 201/48/728 281/314/729 280/313/730
f 201/48/731 202/47/732 282/312/733 281/314/734
f 202/47/735 199/26/736 279/311/737 282/312/738
f 203/27/739 204/28/740 284/315/741 283/313/742
f 204/28/743 205/49/744 285/316/745 284/315/746
f 205/49/747 206/48/748 286/314/749 285/316/750
f 206/48/751 203/27/752 283/313/753 286/314/754
f 207/28/755 208/29/756 288/317/757 287/315/758
f 208/29/759 209/50/760 289/318/761 288/317/762
f 209/50/763 210/49/764 290/316/765 289/318/766
f 210/49/767 207/28/768 287/315/769 290/316/770
f 211/29/771 212/30/772 292/319/773 291/317/774
f 212/30/775 213/51/776 293/320/777 292/319/778
f 213/51/779 214/50/780 294/318/781 293/320/782
f 214/50/783 211/29/784 291/317/785 294/318/786
f 215/30/787 216/31/788 296/321/789 295/319/790
f 216/31/791 217/52/792 297/322/793 296/321/794
f 217/52/795 218/51/796 298/320/797 297/322/798
f 218/51/799 215/30/800 295/319/801 298/320/802
f 219/31/803 220/32/804 300/323/805 299/321/806
f 220/32/807 221/53/808 301/324/809 300/323/810
f 221/53/811 222/52/812 302/322/813 301/324/814
f 222/52/815 219/31/816 299/321/817 302/322/818
f 223/32/819 224/33/820 304/325/821 303/323/822
f 224/33/823 225/54/824 305/326/825 304/325/826
f 225/54/827 226/53/828 306/324/829 305/326/830
f 226/53/831 223/32/832 303/323/833 306/324/834
f 227/33/835 228/34/836 308/327/837 307/325/838
f 228/34/839 229/55/840 309/328/841 308/327/842
f 229/55/843 230/54/844 310/326/845 309/328/846
usemtl standardSurface2SG
f 230/54/847 227/33/848 307/325/849 310/326/850
usemtl blinn1SG
f 231/34/851 232/35/852 312/329/853 311/327/854
f 232/35/855 233/56/856 313/330/857 312/329/858
f 233/56/859 234/55/860 314/328/861 313/330/862
f 234/55/863 231/34/864 311/327/865 314/328/866
f 235/35/867 236/36/868 316/331/869 315/329/870
f 236/36/871 237/57/872 317/332/873 316/331/874
f 237/57/875 238/56/876 318/330/877 317/332/878
f 238/56/879 235/35/880 315/329/881 318/330/882
f 239/36/883 240/37/884 320/333/885 319/331/886
f 240/37/887 241/58/888 321/334/889 320/333/890
f 241/58/891 242/57/892 322/332/893 321/334/894
f 242/57/895 239/36/896 319/331/897 322/332/898
f 243/37/899 244/38/900 324/335/901 323/333/902
f 244/38/903 245/59/904 325/336/905 324/335/906
f 245/59/907 246/58/908 326/334/909 325/336/910
f 246/58/911 243/37/912 323/333/913 326/334/914
f 247/38/915 248/39/916 328/337/917 327/335/918
f 248/39/919 249/60/920 329/338/921 328/337/922
f 249/60/923 250/59/924 330/336/925 329/338/926
f 250/59/927 247/38/928 327/335/929 330/336/930
f 251/39/931 252/297/932 332/339/933 331/337/934
f 252/297/935 253/300/936 333/340/937 332/339/938
f 253/300/939 254/60/940 334/338/941 333/340/942
f 254/60/943 251/39/944 331/337/945 334/338/946
f 255/297/947 256/298/948 336/341/949 335/339/950
f 256/298/951 257/299/952 337/342/953 336/341/954
f 257/299/955 258/300/956 338/340/957 337/342/958
f 258/300/959 255/297/960 335/339/961 338/340/962
