# This file uses centimeters as units for non-parametric coordinates.

mtllib Cow.mtl
v -1.750000 3.000000 4.000000
v -0.583333 3.000000 4.000000
v 0.583333 3.000000 4.000000
v 1.750000 3.000000 4.000000
v -1.750000 4.000000 4.000000
v -0.583333 4.000000 4.000000
v 0.583333 4.000000 4.000000
v 1.750000 4.000000 4.000000
v -1.750000 5.000000 4.000000
v -0.583333 5.000000 4.000000
v 0.583333 5.000000 4.000000
v 1.750000 5.000000 4.000000
v -1.750000 6.000000 4.000000
v -0.583333 6.000000 4.000000
v 0.583333 6.000000 4.000000
v 1.750000 6.000000 4.000000
v -1.750000 7.000000 4.000000
v 1.750000 7.000000 4.000000
v -1.750000 7.000000 2.666667
v -0.583333 7.000000 2.666667
v 0.583333 7.000000 2.666667
v 1.750000 7.000000 2.666667
v -1.750000 7.000000 1.333333
v -0.583333 7.000000 1.333333
v 0.583333 7.000000 1.333333
v 1.750000 7.000000 1.333333
v -1.750000 7.000000 -0.000000
v -0.583333 7.000000 -0.000000
v 0.583333 7.000000 -0.000000
v 1.750000 7.000000 -0.000000
v -1.750000 7.000000 -1.333334
v -0.583333 7.000000 -1.333334
v 0.583333 7.000000 -1.333334
v 1.750000 7.000000 -1.333334
v -1.750000 7.000000 -2.666667
v -0.583333 7.000000 -2.666667
v 0.583333 7.000000 -2.666667
v 1.750000 7.000000 -2.666667
v -1.750000 7.000000 -4.000000
v -0.583333 7.000000 -4.000000
v 0.583333 7.000000 -4.000000
v 1.750000 7.000000 -4.000000
v -1.750000 6.000000 -4.000000
v -0.583333 6.000000 -4.000000
v 0.583333 6.000000 -4.000000
v 1.750000 6.000000 -4.000000
v -1.750000 5.000000 -4.000000
v -0.583333 5.000000 -4.000000
v 0.583333 5.000000 -4.000000
v 1.750000 5.000000 -4.000000
v -1.750000 4.000000 -4.000000
v -0.583333 4.000000 -4.000000
v 0.583333 4.000000 -4.000000
v 1.750000 4.000000 -4.000000
v -1.750000 3.000000 -4.000000
v -0.583333 3.000000 -4.000000
v 0.583333 3.000000 -4.000000
v 1.750000 3.000000 -4.000000
v -1.750000 3.000000 -2.666667
v -0.583333 3.000000 -2.666667
v 0.583333 3.000000 -2.666667
v 1.750000 3.000000 -2.666667
v -1.750000 3.000000 -1.333333
v -0.583333 3.000000 -1.333333
v 0.583333 3.000000 -1.333333
v 1.750000 3.000000 -1.333333
v -1.750000 3.000000 0.000000
v -0.583333 3.000000 0.000000
v 0.583333 3.000000 0.000000
v 1.750000 3.000000 0.000000
v -1.750000 3.000000 1.333334
v -0.583333 3.000000 1.333334
v 0.583333 3.000000 1.333334
v 1.750000 3.000000 1.333334
v -1.750000 3.000000 2.666667
v -0.583333 3.000000 2.666667
v 0.583333 3.000000 2.666667
v 1.750000 3.000000 2.666667
v 1.750000 4.000000 -2.666667
v 1.750000 4.000000 -1.333333
v 1.750000 4.000000 0.000000
v 1.750000 4.000000 1.333334
v 1.750000 4.000000 2.666667
v 1.750000 5.000000 -2.666667
v 1.750000 5.000000 -1.333333
v 1.750000 5.000000 0.000000
v 1.750000 5.000000 1.333334
v 1.750000 5.000000 2.666667
v 1.750000 6.000000 -2.666667
v 1.750000 6.000000 -1.333333
v 1.750000 6.000000 0.000000
v 1.750000 6.000000 1.333334
v 1.750000 6.000000 2.666667
v -1.750000 4.000000 -2.666667
v -1.750000 4.000000 -1.333333
v -1.750000 4.000000 0.000000
v -1.750000 4.000000 1.333334
v -1.750000 4.000000 2.666667
v -1.750000 5.000000 -2.666667
v -1.750000 5.000000 -1.333333
v -1.750000 5.000000 0.000000
v -1.750000 5.000000 1.333334
v -1.750000 5.000000 2.666667
v -1.750000 6.000000 -2.666667
v -1.750000 6.000000 -1.333333
v -1.750000 6.000000 0.000000
v -1.750000 6.000000 1.333334
v -1.750000 6.000000 2.666667
v -1.750000 1.767331 -4.000000
v -0.583333 1.767331 -4.000000
v -0.583333 1.767331 -2.666667
v -1.750000 1.767331 -2.666667
v -0.583333 1.767331 -1.333333
v -1.750000 1.767331 -1.333333
v 0.583333 1.767331 -4.000000
v 1.750000 1.767331 -4.000000
v 1.750000 1.767331 -2.666667
v 0.583333 1.767331 -2.666667
v 1.750000 1.767331 -1.333333
v 0.583333 1.767331 -1.333333
v -1.750000 1.767331 1.333334
v -0.583333 1.767331 1.333334
v -0.583333 1.767331 2.666667
v -1.750000 1.767331 2.666667
v -0.583333 1.767331 4.000000
v -1.750000 1.767331 4.000000
v 0.583333 1.767331 1.333334
v 1.750000 1.767331 1.333334
v 1.750000 1.767331 2.666667
v 0.583333 1.767331 2.666667
v 1.750000 1.767331 4.000000
v 0.583333 1.767331 4.000000
v -1.554259 0.687828 -3.502094
v -0.779074 0.687828 -3.502094
v -0.779074 0.687828 -2.666667
v -1.554259 0.687828 -2.666667
v -0.779074 0.687828 -1.831239
v -1.554259 0.687828 -1.831239
v 0.779074 0.687828 -3.502094
v 1.554259 0.687828 -3.502094
v 1.554259 0.687828 -2.666667
v 0.779074 0.687828 -2.666667
v 1.554259 0.687828 -1.831239
v 0.779074 0.687828 -1.831239
v -1.554259 0.687828 1.831240
v -0.779074 0.687828 1.831240
v -0.779074 0.687828 2.666667
v -1.554259 0.687828 2.666667
v -0.779074 0.687828 3.502094
v -1.554259 0.687828 3.502094
v 0.779074 0.687828 1.831240
v 1.554259 0.687828 1.831240
v 1.554259 0.687828 2.666667
v 0.779074 0.687828 2.666667
v 1.554259 0.687828 3.502094
v 0.779074 0.687828 3.502094
v -1.554259 -0.049911 -3.502094
v -0.779074 -0.049911 -3.502094
v -0.779074 -0.049911 -2.666667
v -1.554259 -0.049911 -2.666667
v -0.779074 -0.049911 -1.831239
v -1.554259 -0.049911 -1.831239
v 0.779074 -0.049911 -3.502094
v 1.554259 -0.049911 -3.502094
v 1.554259 -0.049911 -2.666667
v 0.779074 -0.049911 -2.666667
v 1.554259 -0.049911 -1.831239
v 0.779074 -0.049911 -1.831239
v -1.554259 -0.049911 1.831240
v -0.779074 -0.049911 1.831240
v -0.779074 -0.049911 2.666667
v -1.554259 -0.049911 2.666667
v -0.779074 -0.049911 3.502094
v -1.554259 -0.049911 3.502094
v 0.779074 -0.049911 1.831240
v 1.554259 -0.049911 1.831240
v 1.554259 -0.049911 2.666667
v 0.779074 -0.049911 2.666667
v 1.554259 -0.049911 3.502094
v 0.779074 -0.049911 3.502094
v -1.750000 6.000000 5.834256
v -0.583333 6.000000 5.834256
v -0.583333 8.297015 5.297015
v -1.750000 7.917128 4.917128
v 0.583333 6.000000 5.834256
v 0.583333 8.297015 5.297015
v 1.750000 6.000000 5.834256
v 1.750000 7.917128 4.917128
v -0.583333 8.834256 2.666667
v -1.750000 8.834256 2.666667
v 0.583333 8.834256 2.666667
v 1.750000 8.834256 2.666667
v -2.044570 7.155009 3.778832
v -2.044570 7.155009 3.071962
v -2.044570 7.897733 4.265049
v -2.044570 8.640456 3.071962
v 2.044570 7.155009 3.778832
v 2.044570 7.155009 3.071962
v 2.044570 8.640456 3.071962
v 2.044570 7.897733 4.265049
v -2.537529 7.411523 3.728187
v -2.537529 7.411523 3.150909
v -2.537529 7.869267 4.125264
v -2.537529 8.327010 3.150909
v 2.537529 7.411523 3.728187
v 2.537529 7.411523 3.150909
v 2.537529 8.327010 3.150909
v 2.537529 7.869267 4.125264
v -2.868263 7.411523 3.314236
v -2.868263 7.411523 2.736959
v -2.868263 7.869267 3.711313
v -2.868263 8.327010 2.736959
v 2.868263 7.411523 3.314236
v 2.868263 7.411523 2.736959
v 2.868263 8.327010 2.736959
v 2.868263 7.869267 3.711313
v -0.583333 6.155609 -4.647249
v 0.583333 6.155609 -4.647249
v 0.583333 5.155609 -4.647249
v -0.583333 5.155609 -4.647249
vt 0.375000 0.000000
vt 0.458333 0.000000
vt 0.541667 0.000000
vt 0.625000 0.000000
vt 0.375000 0.062500
vt 0.458333 0.062500
vt 0.541667 0.062500
vt 0.625000 0.062500
vt 0.375000 0.125000
vt 0.458333 0.125000
vt 0.541667 0.125000
vt 0.625000 0.125000
vt 0.375000 0.187500
vt 0.458333 0.187500
vt 0.541667 0.187500
vt 0.625000 0.187500
vt 0.375000 0.250000
vt 0.458333 0.250000
vt 0.541667 0.250000
vt 0.625000 0.250000
vt 0.375000 0.291667
vt 0.458333 0.291667
vt 0.541667 0.291667
vt 0.625000 0.291667
vt 0.375000 0.333333
vt 0.458333 0.333333
vt 0.541667 0.333333
vt 0.625000 0.333333
vt 0.375000 0.375000
vt 0.458333 0.375000
vt 0.541667 0.375000
vt 0.625000 0.375000
vt 0.375000 0.416667
vt 0.458333 0.416667
vt 0.541667 0.416667
vt 0.625000 0.416667
vt 0.375000 0.458333
vt 0.458333 0.458333
vt 0.541667 0.458333
vt 0.625000 0.458333
vt 0.375000 0.500000
vt 0.458333 0.500000
vt 0.541667 0.500000
vt 0.625000 0.500000
vt 0.375000 0.562500
vt 0.458333 0.562500
vt 0.541667 0.562500
vt 0.625000 0.562500
vt 0.375000 0.625000
vt 0.458333 0.625000
vt 0.541667 0.625000
vt 0.625000 0.625000
vt 0.375000 0.687500
vt 0.458333 0.687500
vt 0.541667 0.687500
vt 0.625000 0.687500
vt 0.375000 0.750000
vt 0.458333 0.750000
vt 0.541667 0.750000
vt 0.625000 0.750000
vt 0.375000 0.791667
vt 0.458333 0.791667
vt 0.541667 0.791667
vt 0.625000 0.791667
vt 0.375000 0.833333
vt 0.458333 0.833333
vt 0.541667 0.833333
vt 0.625000 0.833333
vt 0.375000 0.875000
vt 0.458333 0.875000
vt 0.541667 0.875000
vt 0.625000 0.875000
vt 0.375000 0.916667
vt 0.458333 0.916667
vt 0.541667 0.916667
vt 0.625000 0.916667
vt 0.375000 0.958333
vt 0.458333 0.958333
vt 0.541667 0.958333
vt 0.625000 0.958333
vt 0.375000 1.000000
vt 0.458333 1.000000
vt 0.541667 1.000000
vt 0.625000 1.000000
vt 0.875000 0.000000
vt 0.833333 0.000000
vt 0.791667 0.000000
vt 0.750000 0.000000
vt 0.708333 0.000000
vt 0.666667 0.000000
vt 0.875000 0.062500
vt 0.833333 0.062500
vt 0.791667 0.062500
vt 0.750000 0.062500
vt 0.708333 0.062500
vt 0.666667 0.062500
vt 0.875000 0.125000
vt 0.833333 0.125000
vt 0.791667 0.125000
vt 0.750000 0.125000
vt 0.708333 0.125000
vt 0.666667 0.125000
vt 0.875000 0.187500
vt 0.833333 0.187500
vt 0.791667 0.187500
vt 0.750000 0.187500
vt 0.708333 0.187500
vt 0.666667 0.187500
vt 0.875000 0.250000
vt 0.833333 0.250000
vt 0.791667 0.250000
vt 0.750000 0.250000
vt 0.708333 0.250000
vt 0.666667 0.250000
vt 0.125000 0.000000
vt 0.166667 0.000000
vt 0.208333 0.000000
vt 0.250000 0.000000
vt 0.291667 0.000000
vt 0.333333 0.000000
vt 0.125000 0.062500
vt 0.166667 0.062500
vt 0.208333 0.062500
vt 0.250000 0.062500
vt 0.291667 0.062500
vt 0.333333 0.062500
vt 0.125000 0.125000
vt 0.166667 0.125000
vt 0.208333 0.125000
vt 0.250000 0.125000
vt 0.291667 0.125000
vt 0.333333 0.125000
vt 0.125000 0.187500
vt 0.166667 0.187500
vt 0.208333 0.187500
vt 0.250000 0.187500
vt 0.291667 0.187500
vt 0.333333 0.187500
vt 0.125000 0.250000
vt 0.166667 0.250000
vt 0.208333 0.250000
vt 0.250000 0.250000
vt 0.291667 0.250000
vt 0.333333 0.250000
vt 0.375000 0.750000
vt 0.458333 0.750000
vt 0.458333 0.791667
vt 0.375000 0.791667
vt 0.541667 0.750000
vt 0.625000 0.750000
vt 0.625000 0.791667
vt 0.541667 0.791667
vt 0.458333 0.833333
vt 0.375000 0.833333
vt 0.625000 0.833333
vt 0.541667 0.833333
vt 0.375000 0.916667
vt 0.458333 0.916667
vt 0.458333 0.958333
vt 0.375000 0.958333
vt 0.541667 0.916667
vt 0.625000 0.916667
vt 0.625000 0.958333
vt 0.541667 0.958333
vt 0.458333 1.000000
vt 0.375000 1.000000
vt 0.625000 1.000000
vt 0.541667 1.000000
vt 0.375000 0.750000
vt 0.458333 0.750000
vt 0.458333 0.791667
vt 0.375000 0.791667
vt 0.541667 0.750000
vt 0.625000 0.750000
vt 0.625000 0.791667
vt 0.541667 0.791667
vt 0.458333 0.833333
vt 0.375000 0.833333
vt 0.625000 0.833333
vt 0.541667 0.833333
vt 0.375000 0.916667
vt 0.458333 0.916667
vt 0.458333 0.958333
vt 0.375000 0.958333
vt 0.541667 0.916667
vt 0.625000 0.916667
vt 0.625000 0.958333
vt 0.541667 0.958333
vt 0.458333 1.000000
vt 0.375000 1.000000
vt 0.625000 1.000000
vt 0.541667 1.000000
vt 0.375000 0.750000
vt 0.458333 0.750000
vt 0.458333 0.791667
vt 0.375000 0.791667
vt 0.541667 0.750000
vt 0.625000 0.750000
vt 0.625000 0.791667
vt 0.541667 0.791667
vt 0.458333 0.833333
vt 0.375000 0.833333
vt 0.625000 0.833333
vt 0.541667 0.833333
vt 0.375000 0.916667
vt 0.458333 0.916667
vt 0.458333 0.958333
vt 0.375000 0.958333
vt 0.541667 0.916667
vt 0.625000 0.916667
vt 0.625000 0.958333
vt 0.541667 0.958333
vt 0.458333 1.000000
vt 0.375000 1.000000
vt 0.625000 1.000000
vt 0.541667 1.000000
vt 0.375000 0.187500
vt 0.458333 0.187500
vt 0.375000 0.250000
vt 0.541667 0.187500
vt 0.625000 0.187500
vt 0.625000 0.250000
vt 0.458333 0.291667
vt 0.375000 0.291667
vt 0.541667 0.291667
vt 0.625000 0.291667
vt 0.375000 0.291667
vt 0.375000 0.250000
vt 0.375000 0.250000
vt 0.375000 0.291667
vt 0.625000 0.250000
vt 0.625000 0.291667
vt 0.625000 0.291667
vt 0.625000 0.250000
vt 0.375000 0.291667
vt 0.375000 0.250000
vt 0.375000 0.250000
vt 0.375000 0.291667
vt 0.625000 0.250000
vt 0.625000 0.291667
vt 0.625000 0.291667
vt 0.625000 0.250000
vt 0.375000 0.291667
vt 0.375000 0.250000
vt 0.375000 0.250000
vt 0.375000 0.291667
vt 0.625000 0.250000
vt 0.625000 0.291667
vt 0.625000 0.291667
vt 0.625000 0.250000
vt 0.458333 0.500000
vt 0.541667 0.500000
vt 0.541667 0.562500
vt 0.458333 0.562500
vn 0.000000 0.000000 1.000000
vn 0.000000 0.000000 1.000000
vn 0.000000 0.000000 1.000000
vn 0.000000 0.000000 1.000000
vn 0.000000 0.000000 1.000000
vn 0.000000 0.000000 1.000000
vn 0.000000 0.000000 1.000000
vn 0.000000 0.000000 1.000000
vn 0.000000 0.000000 1.000000
vn 0.000000 0.000000 1.000000
vn 0.000000 0.000000 1.000000
vn 0.000000 0.000000 1.000000
vn 0.000000 0.000000 1.000000
vn 0.000000 0.000000 1.000000
vn 0.000000 0.000000 1.000000
vn 0.000000 0.000000 1.000000
vn -0.202716 0.319461 0.925662
vn -0.100200 0.274566 0.956333
vn -0.092433 0.271039 0.958120
vn -0.202716 0.319461 0.925662
vn 0.100200 0.274566 0.956333
vn 0.092433 0.271039 0.958120
vn 0.202716 0.319461 0.925662
vn 0.202716 0.319461 0.925662
vn -0.215839 0.933059 0.287775
vn -0.090226 0.967173 0.237561
vn -0.098204 0.965599 0.240778
vn -0.217433 0.932466 0.288496
vn 0.090226 0.967173 0.237561
vn 0.098204 0.965599 0.240778
vn 0.215839 0.933059 0.287775
vn 0.217433 0.932466 0.288496
vn 0.000000 1.000000 0.000000
vn 0.000000 1.000000 0.000000
vn 0.000000 1.000000 0.000000
vn 0.000000 1.000000 0.000000
vn 0.000000 1.000000 0.000000
vn 0.000000 1.000000 0.000000
vn 0.000000 1.000000 0.000000
vn 0.000000 1.000000 0.000000
vn 0.000000 1.000000 0.000000
vn 0.000000 1.000000 0.000000
vn 0.000000 1.000000 0.000000
vn 0.000000 1.000000 0.000000
vn 0.000000 1.000000 0.000000
vn 0.000000 1.000000 0.000000
vn 0.000000 1.000000 0.000000
vn 0.000000 1.000000 0.000000
vn 0.000000 1.000000 0.000000
vn 0.000000 1.000000 0.000000
vn 0.000000 1.000000 0.000000
vn 0.000000 1.000000 0.000000
vn 0.000000 1.000000 0.000000
vn 0.000000 1.000000 0.000000
vn 0.000000 1.000000 0.000000
vn 0.000000 1.000000 0.000000
vn 0.000000 0.000000 -1.000000
vn 0.000000 0.000000 -1.000000
vn 0.000000 0.000000 -1.000000
vn 0.000000 0.000000 -1.000000
vn 0.000000 0.000000 -1.000000
vn 0.000000 0.000000 -1.000000
vn 0.000000 0.000000 -1.000000
vn 0.000000 0.000000 -1.000000
vn 0.000000 0.000000 -1.000000
vn 0.000000 0.000000 -1.000000
vn 0.000000 0.000000 -1.000000
vn 0.000000 0.000000 -1.000000
vn 0.000000 0.000000 -1.000000
vn 0.000000 0.000000 -1.000000
vn 0.000000 0.000000 -1.000000
vn 0.000000 0.000000 -1.000000
vn 0.000000 0.000000 -1.000000
vn 0.000000 0.000000 -1.000000
vn 0.000000 0.000000 -1.000000
vn 0.000000 0.000000 -1.000000
vn 0.000000 0.000000 -1.000000
vn 0.000000 0.000000 -1.000000
vn 0.000000 0.000000 -1.000000
vn 0.000000 0.000000 -1.000000
vn 0.000000 -1.000000 0.000000
vn 0.000000 -1.000000 0.000000
vn 0.000000 -1.000000 0.000000
vn 0.000000 -1.000000 0.000000
vn 0.000000 -1.000000 0.000000
vn 0.000000 -1.000000 0.000000
vn 0.000000 -1.000000 0.000000
vn 0.000000 -1.000000 0.000000
vn 0.000000 -1.000000 0.000000
vn 0.000000 -1.000000 0.000000
vn 0.000000 -1.000000 0.000000
vn 0.000000 -1.000000 0.000000
vn 0.000000 -1.000000 0.000000
vn 0.000000 -1.000000 0.000000
vn 0.000000 -1.000000 0.000000
vn 0.000000 -1.000000 0.000000
vn 0.000000 -1.000000 0.000000
vn 0.000000 -1.000000 0.000000
vn 0.000000 -1.000000 0.000000
vn 0.000000 -1.000000 0.000000
vn 0.000000 -1.000000 0.000000
vn 0.000000 -1.000000 0.000000
vn 0.000000 -1.000000 0.000000
vn 0.000000 -1.000000 0.000000
vn 0.000000 -1.000000 0.000000
vn 0.000000 -1.000000 0.000000
vn 0.000000 -1.000000 0.000000
vn 0.000000 -1.000000 0.000000
vn 0.000000 -1.000000 0.000000
vn 0.000000 -1.000000 0.000000
vn 0.000000 -1.000000 0.000000
vn 0.000000 -1.000000 0.000000
vn 0.000000 -1.000000 0.000000
vn 0.000000 -1.000000 0.000000
vn 0.000000 -1.000000 0.000000
vn 0.000000 -1.000000 0.000000
vn 0.000000 -1.000000 0.000000
vn 0.000000 -1.000000 0.000000
vn 0.000000 -1.000000 0.000000
vn 0.000000 -1.000000 0.000000
vn 0.000000 -1.000000 0.000000
vn 0.000000 -1.000000 0.000000
vn 0.000000 -1.000000 0.000000
vn 0.000000 -1.000000 0.000000
vn 1.000000 -0.000000 -0.000000
vn 1.000000 0.000000 -0.000000
vn 1.000000 0.000000 -0.000000
vn 1.000000 -0.000000 -0.000000
vn 1.000000 -0.000000 0.000000
vn 1.000000 -0.000000 0.000000
vn 1.000000 -0.000000 0.000000
vn 1.000000 -0.000000 0.000000
vn 1.000000 -0.000000 0.000000
vn 1.000000 -0.000000 0.000000
vn 1.000000 -0.000000 0.000000
vn 1.000000 -0.000000 0.000000
vn 1.000000 -0.000000 0.000000
vn 1.000000 -0.000000 0.000000
vn 1.000000 0.000000 -0.000000
vn 1.000000 0.000000 -0.000000
vn 1.000000 0.000000 0.000000
vn 1.000000 0.000000 0.000000
vn 1.000000 0.000000 0.000000
vn 1.000000 0.000000 0.000000
vn 1.000000 0.000000 0.000000
vn 1.000000 0.000000 -0.000000
vn 1.000000 0.000000 -0.000000
vn 1.000000 0.000000 0.000000
vn 1.000000 0.000000 0.000000
vn 1.000000 0.000000 0.000000
vn 1.000000 0.000000 0.000000
vn 1.000000 0.000000 0.000000
vn 1.000000 0.000000 -0.000000
vn 1.000000 0.000000 -0.000000
vn 1.000000 0.000000 0.000000
vn 1.000000 0.000000 0.000000
vn 1.000000 0.000000 0.000000
vn 1.000000 0.000000 0.000000
vn 1.000000 0.000000 0.000000
vn -1.000000 0.000000 0.000000
vn -1.000000 0.000000 0.000000
vn -1.000000 0.000000 0.000000
vn -1.000000 0.000000 0.000000
vn -1.000000 0.000000 0.000000
vn -1.000000 0.000000 0.000000
vn -1.000000 0.000000 0.000000
vn -1.000000 0.000000 0.000000
vn -1.000000 0.000000 0.000000
vn -1.000000 0.000000 0.000000
vn -1.000000 0.000000 0.000000
vn -1.000000 0.000000 0.000000
vn -1.000000 0.000000 0.000000
vn -1.000000 0.000000 0.000000
vn -1.000000 0.000000 0.000000
vn -1.000000 0.000000 0.000000
vn -1.000000 0.000000 0.000000
vn -1.000000 0.000000 0.000000
vn -1.000000 0.000000 0.000000
vn -1.000000 0.000000 0.000000
vn -1.000000 0.000000 0.000000
vn -1.000000 -0.000000 0.000000
vn -1.000000 -0.000000 0.000000
vn -1.000000 -0.000000 0.000000
vn -1.000000 -0.000000 0.000000
vn -1.000000 -0.000000 0.000000
vn -1.000000 0.000000 0.000000
vn -1.000000 0.000000 0.000000
vn -1.000000 -0.000000 0.000000
vn -1.000000 -0.000000 0.000000
vn -1.000000 -0.000000 0.000000
vn -1.000000 -0.000000 0.000000
vn -1.000000 -0.000000 0.000000
vn -1.000000 -0.000000 0.000000
vn -1.000000 0.000000 0.000000
vn 0.000000 -0.179271 -0.983800
vn 0.000000 -0.179271 -0.983800
vn 1.000000 0.000000 0.000000
vn 1.000000 0.000000 0.000000
vn 0.997168 -0.075211 0.000000
vn 0.998086 -0.061839 0.000000
vn -0.998086 -0.061839 0.000000
vn -0.997168 -0.075211 0.000000
vn 1.000000 0.000000 0.000000
vn 0.998086 -0.061839 0.000000
vn 0.000000 0.000000 1.000000
vn 0.000000 0.000000 1.000000
vn 0.000000 -0.179271 0.983800
vn 0.000000 -0.179271 0.983800
vn -0.998086 -0.061839 0.000000
vn 0.000000 -0.179271 -0.983800
vn 0.000000 -0.179271 -0.983800
vn 0.997168 -0.075211 0.000000
vn 0.998086 -0.061839 0.000000
vn -1.000000 0.000000 0.000000
vn -1.000000 0.000000 0.000000
vn -0.998086 -0.061839 0.000000
vn -0.997168 -0.075211 0.000000
vn 0.998086 -0.061839 0.000000
vn 0.000000 0.000000 1.000000
vn 0.000000 0.000000 1.000000
vn 0.000000 -0.179271 0.983800
vn 0.000000 -0.179271 0.983800
vn -1.000000 0.000000 0.000000
vn -0.998086 -0.061839 0.000000
vn 0.000000 0.000000 -1.000000
vn 0.000000 0.000000 -1.000000
vn 0.000000 -0.179271 -0.983800
vn 0.000000 -0.179271 -0.983800
vn 1.000000 0.000000 0.000000
vn 1.000000 0.000000 0.000000
vn 0.997168 -0.075211 0.000000
vn 0.998086 -0.061839 0.000000
vn -0.998086 -0.061839 0.000000
vn -0.997168 -0.075211 0.000000
vn 1.000000 0.000000 0.000000
vn 0.998086 -0.061839 0.000000
vn 0.000000 -0.179271 0.983800
vn 0.000000 -0.179271 0.983800
vn -0.998086 -0.061839 0.000000
vn 0.000000 0.000000 -1.000000
vn 0.000000 0.000000 -1.000000
vn 0.000000 -0.179271 -0.983800
vn 0.000000 -0.179271 -0.983800
vn 0.997168 -0.075211 0.000000
vn 0.998086 -0.061839 0.000000
vn -1.000000 0.000000 0.000000
vn -1.000000 0.000000 0.000000
vn -0.998086 -0.061839 0.000000
vn -0.997168 -0.075211 0.000000
vn 0.998086 -0.061839 0.000000
vn 0.000000 -0.179271 0.983800
vn 0.000000 -0.179271 0.983800
vn -1.000000 0.000000 0.000000
vn -0.998086 -0.061839 0.000000
vn 0.000000 -0.294937 -0.955517
vn 0.000000 -0.294937 -0.955517
vn 0.993019 -0.117955 0.000000
vn 0.991880 -0.127178 0.000000
vn -0.991880 -0.127178 0.000000
vn -0.993019 -0.117955 0.000000
vn 0.991880 -0.127178 0.000000
vn 0.000000 -0.294937 0.955517
vn 0.000000 -0.294937 0.955517
vn -0.991880 -0.127178 0.000000
vn 0.000000 -0.294937 -0.955517
vn 0.000000 -0.294937 -0.955517
vn 0.993019 -0.117955 0.000000
vn 0.991880 -0.127178 0.000000
vn -0.991880 -0.127178 0.000000
vn -0.993019 -0.117955 0.000000
vn 0.991880 -0.127178 0.000000
vn 0.000000 -0.294937 0.955517
vn 0.000000 -0.294937 0.955517
vn -0.991880 -0.127178 0.000000
vn 0.000000 -0.294937 -0.955517
vn 0.000000 -0.294937 -0.955517
vn 0.993019 -0.117955 0.000000
vn 0.991880 -0.127178 0.000000
vn -0.991880 -0.127178 0.000000
vn -0.993019 -0.117955 0.000000
vn 0.991880 -0.127178 0.000000
vn 0.000000 -0.294937 0.955517
vn 0.000000 -0.294937 0.955517
vn -0.991880 -0.127178 0.000000
vn 0.000000 -0.294937 -0.955517
vn 0.000000 -0.294937 -0.955517
vn 0.993019 -0.117955 0.000000
vn 0.991880 -0.127178 0.000000
vn -0.991880 -0.127178 0.000000
vn -0.993019 -0.117955 0.000000
vn 0.991880 -0.127178 0.000000
vn 0.000000 -0.294937 0.955517
vn 0.000000 -0.294937 0.955517
vn -0.991880 -0.127178 0.000000
vn 0.000000 0.000000 -1.000000
vn 0.000000 0.000000 -1.000000
vn 1.000000 0.000000 0.000000
vn 1.000000 0.000000 0.000000
vn -1.000000 0.000000 0.000000
vn -1.000000 0.000000 0.000000
vn 1.000000 0.000000 0.000000
vn 0.000000 0.000000 1.000000
vn 0.000000 0.000000 1.000000
vn -1.000000 0.000000 0.000000
vn 0.000000 0.000000 -1.000000
vn 0.000000 0.000000 -1.000000
vn 1.000000 0.000000 0.000000
vn 1.000000 0.000000 0.000000
vn -1.000000 0.000000 0.000000
vn -1.000000 0.000000 0.000000
vn 1.000000 0.000000 0.000000
vn 0.000000 0.000000 1.000000
vn 0.000000 0.000000 1.000000
vn -1.000000 0.000000 0.000000
vn 0.000000 0.000000 -1.000000
vn 0.000000 0.000000 -1.000000
vn 1.000000 0.000000 0.000000
vn 1.000000 0.000000 0.000000
vn -1.000000 0.000000 0.000000
vn -1.000000 0.000000 0.000000
vn 1.000000 0.000000 0.000000
vn 0.000000 0.000000 1.000000
vn 0.000000 0.000000 1.000000
vn -1.000000 0.000000 0.000000
vn 0.000000 0.000000 -1.000000
vn 0.000000 0.000000 -1.000000
vn 1.000000 0.000000 0.000000
vn 1.000000 0.000000 0.000000
vn -1.000000 0.000000 0.000000
vn -1.000000 0.000000 0.000000
vn 1.000000 0.000000 0.000000
vn 0.000000 0.000000 1.000000
vn 0.000000 0.000000 1.000000
vn -1.000000 0.000000 0.000000
vn 0.000000 -1.000000 0.000000
vn 0.000000 -1.000000 0.000000
vn 0.000000 -1.000000 0.000000
vn 0.000000 -1.000000 0.000000
vn -1.000000 0.000000 0.000000
vn -1.000000 0.000000 0.000000
vn 0.000000 -1.000000 0.000000
vn 0.000000 -1.000000 0.000000
vn 0.000000 -1.000000 0.000000
vn 0.000000 -1.000000 0.000000
vn 1.000000 0.000000 0.000000
vn 1.000000 0.000000 0.000000
vn 0.000000 0.000000 -1.000000
vn 0.000000 0.000000 -1.000000
vn 0.000000 0.000000 -1.000000
vn 0.000000 0.000000 -1.000000
vn -1.000000 0.000000 0.000000
vn -1.000000 0.000000 0.000000
vn -1.000000 0.000000 0.000000
vn -1.000000 0.000000 0.000000
vn 0.000000 0.000000 -1.000000
vn 0.000000 0.000000 -1.000000
vn 1.000000 0.000000 0.000000
vn 1.000000 0.000000 0.000000
vn 1.000000 0.000000 0.000000
vn 1.000000 0.000000 0.000000
vn 0.000000 0.000000 -1.000000
vn 0.000000 0.000000 -1.000000
vn -0.465682 -0.884952 0.000000
vn -0.465682 -0.884952 0.000000
vn -0.463973 -0.885849 0.000000
vn -0.464133 -0.885766 0.000000
vn -0.788147 -0.397381 0.470014
vn -0.788147 -0.397381 0.470014
vn -0.788147 -0.397381 0.470014
vn -0.788147 -0.397381 0.470014
vn -0.410518 0.813837 0.411271
vn -0.404194 0.815240 0.414743
vn -0.808917 0.000000 -0.587922
vn -0.808917 0.000000 -0.587922
vn -0.808917 0.000000 -0.587922
vn -0.808917 0.000000 -0.587922
vn 0.465682 -0.884952 0.000000
vn 0.465682 -0.884952 0.000000
vn 0.464133 -0.885765 0.000000
vn 0.463973 -0.885849 0.000000
vn 0.808917 0.000000 -0.587922
vn 0.808917 0.000000 -0.587922
vn 0.808917 0.000000 -0.587922
vn 0.808917 0.000000 -0.587922
vn 0.404194 0.815239 0.414743
vn 0.410518 0.813837 0.411271
vn 0.788147 -0.397380 0.470014
vn 0.788147 -0.397380 0.470014
vn 0.788147 -0.397380 0.470014
vn 0.788147 -0.397380 0.470014
vn -0.385705 -0.922622 0.000000
vn -0.268154 -0.963376 0.000000
vn -0.280877 -0.568793 0.773035
vn -0.280877 -0.568793 0.773035
vn -0.409663 -0.554628 0.724268
vn -0.476698 -0.542408 0.691776
vn -0.384343 0.819686 0.424729
vn -0.350156 0.825469 0.442710
vn -0.158134 0.000000 -0.987418
vn -0.158134 0.000000 -0.987418
vn -0.158134 0.000000 -0.987418
vn -0.158134 0.000000 -0.987418
vn 0.268154 -0.963376 0.000000
vn 0.385705 -0.922622 0.000000
vn 0.158134 0.000000 -0.987418
vn 0.158134 0.000000 -0.987418
vn 0.158134 0.000000 -0.987418
vn 0.158134 0.000000 -0.987418
vn 0.350157 0.825469 0.442710
vn 0.384343 0.819686 0.424729
vn 0.280877 -0.568793 0.773035
vn 0.280877 -0.568793 0.773035
vn 0.476698 -0.542408 0.691776
vn 0.409663 -0.554628 0.724268
vn 0.000000 -1.000000 0.000000
vn 0.000000 -1.000000 0.000000
vn -0.687012 -0.476153 0.548901
vn -0.687012 -0.476153 0.548901
vn -0.469805 0.798992 0.375360
vn -0.469805 0.798992 0.375360
vn 0.781261 0.000000 -0.624204
vn 0.781261 0.000000 -0.624204
vn 0.781261 0.000000 -0.624204
vn 0.781261 0.000000 -0.624204
vn 0.000000 -1.000000 0.000000
vn 0.000000 -1.000000 0.000000
vn -0.781261 0.000000 -0.624204
vn -0.781261 0.000000 -0.624204
vn -0.781261 0.000000 -0.624204
vn -0.781261 0.000000 -0.624204
vn 0.469805 0.798992 0.375360
vn 0.469805 0.798992 0.375360
vn 0.687012 -0.476153 0.548901
vn 0.687012 -0.476153 0.548901
vn 0.000000 0.608362 -0.793660
vn 0.000000 0.608362 -0.793660
vn 0.000000 0.608362 -0.793660
vn 0.000000 0.608362 -0.793660
vn 1.000000 0.000000 0.000000
vn 1.000000 0.000000 0.000000
vn 1.000000 0.000000 0.000000
vn 1.000000 0.000000 0.000000
vn 0.000000 -0.608362 0.793660
vn 0.000000 -0.608362 0.793660
vn 0.000000 -0.608362 0.793660
vn 0.000000 -0.608362 0.793660
vn -1.000000 0.000000 0.000000
vn -1.000000 0.000000 0.000000
vn -1.000000 0.000000 0.000000
vn -1.000000 0.000000 0.000000
s 1
usemtl blinn1SG
f 1/1/1 2/2/2 6/6/3 5/5/4
f 2/2/2 3/3/5 7/7/6 6/6/3
f 3/3/5 4/4/7 8/8/8 7/7/6
f 5/5/4 6/6/3 10/10/9 9/9/10
f 6/6/3 7/7/6 11/11/11 10/10/9
f 7/7/6 8/8/8 12/12/12 11/11/11
f 9/9/10 10/10/9 14/14/13 13/13/14
f 10/10/9 11/11/11 15/15/15 14/14/13
f 11/11/11 12/12/12 16/16/16 15/15/15
s 2
f 181/217/17 182/218/18 183/18/19 184/219/20
f 182/218/18 185/220/21 186/19/22 183/18/19
f 185/220/21 187/221/23 188/222/24 186/19/22
s 3
f 184/219/25 183/18/26 189/223/27 190/224/28
f 183/18/26 186/19/29 191/225/30 189/223/27
f 186/19/29 188/222/31 192/226/32 191/225/30
s 4
f 19/21/33 20/22/34 24/26/35 23/25/36
f 20/22/34 21/23/37 25/27/38 24/26/35
f 21/23/37 22/24/39 26/28/40 25/27/38
f 23/25/36 24/26/35 28/30/41 27/29/42
f 24/26/35 25/27/38 29/31/43 28/30/41
f 25/27/38 26/28/40 30/32/44 29/31/43
f 27/29/42 28/30/41 32/34/45 31/33/46
f 28/30/41 29/31/43 33/35/47 32/34/45
f 29/31/43 30/32/44 34/36/48 33/35/47
f 31/33/46 32/34/45 36/38/49 35/37/50
f 32/34/45 33/35/47 37/39/51 36/38/49
f 33/35/47 34/36/48 38/40/52 37/39/51
f 35/37/50 36/38/49 40/42/53 39/41/54
f 36/38/49 37/39/51 41/43/55 40/42/53
f 37/39/51 38/40/52 42/44/56 41/43/55
s 5
f 39/41/57 40/42/58 44/46/59 43/45/60
s off
f 217/251/61 218/252/62 219/253/63 220/254/64
s 5
f 41/43/65 42/44/66 46/48/67 45/47/68
f 43/45/60 44/46/59 48/50/69 47/49/70
f 44/46/59 45/47/68 49/51/71 48/50/69
f 45/47/68 46/48/67 50/52/72 49/51/71
f 47/49/70 48/50/69 52/54/73 51/53/74
f 48/50/69 49/51/71 53/55/75 52/54/73
f 49/51/71 50/52/72 54/56/76 53/55/75
f 51/53/74 52/54/73 56/58/77 55/57/78
f 52/54/73 53/55/75 57/59/79 56/58/77
f 53/55/75 54/56/76 58/60/80 57/59/79
s 7
f 157/193/81 158/194/82 159/195/83 160/196/84
s 8
f 56/58/85 57/59/86 61/63/87 60/62/88
s 9
f 163/197/89 164/198/90 165/199/91 166/200/92
s 7
f 160/196/84 159/195/83 161/201/93 162/202/94
s 8
f 60/62/88 61/63/87 65/67/95 64/66/96
s 9
f 166/200/92 165/199/91 167/203/97 168/204/98
s 8
f 63/65/99 64/66/96 68/70/100 67/69/101
f 64/66/96 65/67/95 69/71/102 68/70/100
f 65/67/95 66/68/103 70/72/104 69/71/102
f 67/69/101 68/70/100 72/74/105 71/73/106
f 68/70/100 69/71/102 73/75/107 72/74/105
f 69/71/102 70/72/104 74/76/108 73/75/107
s 10
f 169/205/109 170/206/110 171/207/111 172/208/112
s 8
f 72/74/105 73/75/107 77/79/113 76/78/114
s 11
f 175/209/115 176/210/116 177/211/117 178/212/118
s 10
f 172/208/112 171/207/111 173/213/119 174/214/120
s 8
f 76/78/114 77/79/113 3/83/121 2/82/122
s 11
f 178/212/118 177/211/117 179/215/123 180/216/124
s 12
f 62/86/125 58/85/126 54/91/127 79/92/128
f 66/87/129 62/86/125 79/92/128 80/93/130
f 70/88/131 66/87/129 80/93/130 81/94/132
f 74/89/133 70/88/131 81/94/132 82/95/134
f 78/90/135 74/89/133 82/95/134 83/96/136
f 4/4/137 78/90/135 83/96/136 8/8/138
f 79/92/128 54/91/127 50/97/139 84/98/140
f 80/93/130 79/92/128 84/98/140 85/99/141
f 81/94/132 80/93/130 85/99/141 86/100/142
f 82/95/134 81/94/132 86/100/142 87/101/143
f 83/96/136 82/95/134 87/101/143 88/102/144
f 8/8/138 83/96/136 88/102/144 12/12/145
f 84/98/140 50/97/139 46/103/146 89/104/147
f 85/99/141 84/98/140 89/104/147 90/105/148
f 86/100/142 85/99/141 90/105/148 91/106/149
f 87/101/143 86/100/142 91/106/149 92/107/150
f 88/102/144 87/101/143 92/107/150 93/108/151
f 12/12/145 88/102/144 93/108/151 16/16/152
f 89/104/147 46/103/146 42/109/153 38/110/154
f 90/105/148 89/104/147 38/110/154 34/111/155
f 91/106/149 90/105/148 34/111/155 30/112/156
f 92/107/150 91/106/149 30/112/156 26/113/157
f 93/108/151 92/107/150 26/113/157 22/114/158
f 16/16/152 93/108/151 22/114/158 18/20/159
s 13
f 55/115/160 59/116/161 94/122/162 51/121/163
f 59/116/161 63/117/164 95/123/165 94/122/162
f 63/117/164 67/118/166 96/124/167 95/123/165
f 67/118/166 71/119/168 97/125/169 96/124/167
f 71/119/168 75/120/170 98/126/171 97/125/169
f 75/120/170 1/1/172 5/5/173 98/126/171
f 51/121/163 94/122/162 99/128/174 47/127/175
f 94/122/162 95/123/165 100/129/176 99/128/174
f 95/123/165 96/124/167 101/130/177 100/129/176
f 96/124/167 97/125/169 102/131/178 101/130/177
f 97/125/169 98/126/171 103/132/179 102/131/178
f 98/126/171 5/5/173 9/9/180 103/132/179
f 47/127/175 99/128/174 104/134/181 43/133/182
f 99/128/174 100/129/176 105/135/183 104/134/181
f 100/129/176 101/130/177 106/136/184 105/135/183
f 101/130/177 102/131/178 107/137/185 106/136/184
f 102/131/178 103/132/179 108/138/186 107/137/185
f 103/132/179 9/9/180 13/13/187 108/138/186
f 43/133/182 104/134/181 35/140/188 39/139/189
f 104/134/181 105/135/183 31/141/190 35/140/188
f 105/135/183 106/136/184 27/142/191 31/141/190
f 106/136/184 107/137/185 23/143/192 27/142/191
f 107/137/185 108/138/186 19/144/193 23/143/192
f 108/138/186 13/13/187 17/17/194 19/144/193
s 5
f 55/57/78 56/58/77 110/146/195 109/145/196
s 14
f 56/58/197 60/62/198 111/147/199 110/146/200
s 13
f 59/61/161 55/57/160 109/145/201 112/148/202
s 14
f 60/59/198 64/60/203 113/150/204 111/149/199
s 15
f 64/60/205 63/64/206 114/151/207 113/150/208
s 13
f 63/63/164 59/59/161 112/149/202 114/152/209
s 5
f 57/62/79 58/66/80 116/153/210 115/147/211
s 12
f 58/66/126 62/65/125 117/154/212 116/153/213
s 16
f 61/65/214 57/61/215 115/148/216 118/154/217
s 12
f 62/64/125 66/68/129 119/155/218 117/151/212
s 17
f 66/68/219 65/67/220 120/156/221 119/155/222
s 16
f 65/67/223 61/63/214 118/152/217 120/156/224
s 18
f 71/73/225 72/74/226 122/158/227 121/157/228
s 19
f 72/74/229 76/78/230 123/159/231 122/158/232
s 13
f 75/77/170 71/73/168 121/157/233 124/160/234
s 19
f 76/75/230 2/76/235 125/162/236 123/161/231
s 1
f 2/76/2 1/80/1 126/163/237 125/162/238
s 13
f 1/79/172 75/75/170 124/161/234 126/164/239
s 20
f 73/78/240 74/82/241 128/165/242 127/159/243
s 12
f 74/82/133 78/81/135 129/166/244 128/165/245
s 21
f 77/81/246 73/77/247 127/160/248 130/166/249
s 12
f 78/80/135 4/84/137 131/167/250 129/163/244
s 1
f 4/84/7 3/83/5 132/168/251 131/167/252
s 21
f 3/83/253 77/79/246 130/164/249 132/168/254
s 5
f 109/145/196 110/146/195 134/170/255 133/169/256
s 14
f 110/146/200 111/147/199 135/171/257 134/170/258
s 13
f 112/148/202 109/145/201 133/169/259 136/172/260
s 14
f 111/149/199 113/150/204 137/174/261 135/173/257
s 15
f 113/150/208 114/151/207 138/175/262 137/174/263
s 13
f 114/152/209 112/149/202 136/173/260 138/176/264
s 5
f 115/147/211 116/153/210 140/177/265 139/171/266
s 12
f 116/153/213 117/154/212 141/178/267 140/177/268
s 16
f 118/154/217 115/148/216 139/172/269 142/178/270
s 12
f 117/151/212 119/155/218 143/179/271 141/175/267
s 17
f 119/155/222 120/156/221 144/180/272 143/179/273
s 16
f 120/156/224 118/152/217 142/176/270 144/180/274
s 18
f 121/157/228 122/158/227 146/182/275 145/181/276
s 19
f 122/158/232 123/159/231 147/183/277 146/182/278
s 13
f 124/160/234 121/157/233 145/181/279 148/184/280
s 19
f 123/161/231 125/162/236 149/186/281 147/185/277
s 1
f 125/162/238 126/163/237 150/187/282 149/186/283
s 13
f 126/164/239 124/161/234 148/185/280 150/188/284
s 20
f 127/159/243 128/165/242 152/189/285 151/183/286
s 12
f 128/165/245 129/166/244 153/190/287 152/189/288
s 21
f 130/166/249 127/160/248 151/184/289 154/190/290
s 12
f 129/163/244 131/167/250 155/191/291 153/187/287
s 1
f 131/167/252 132/168/251 156/192/292 155/191/293
s 21
f 132/168/254 130/164/249 154/188/290 156/192/294
s 5
f 133/169/256 134/170/255 158/194/295 157/193/296
s 14
f 134/170/258 135/171/257 159/195/297 158/194/298
s 13
f 136/172/260 133/169/259 157/193/299 160/196/300
s 14
f 135/173/257 137/174/261 161/198/301 159/197/297
s 15
f 137/174/263 138/175/262 162/199/302 161/198/303
s 13
f 138/176/264 136/173/260 160/197/300 162/200/304
s 5
f 139/171/266 140/177/265 164/201/305 163/195/306
s 12
f 140/177/268 141/178/267 165/202/307 164/201/308
s 16
f 142/178/270 139/172/269 163/196/309 166/202/310
s 12
f 141/175/267 143/179/271 167/203/311 165/199/307
s 17
f 143/179/273 144/180/272 168/204/312 167/203/313
s 16
f 144/180/274 142/176/270 166/200/310 168/204/314
s 18
f 145/181/276 146/182/275 170/206/315 169/205/316
s 19
f 146/182/278 147/183/277 171/207/317 170/206/318
s 13
f 148/184/280 145/181/279 169/205/319 172/208/320
s 19
f 147/185/277 149/186/281 173/210/321 171/209/317
s 1
f 149/186/283 150/187/282 174/211/322 173/210/323
s 13
f 150/188/284 148/185/280 172/209/320 174/212/324
s 20
f 151/183/286 152/189/285 176/213/325 175/207/326
s 12
f 152/189/288 153/190/287 177/214/327 176/213/328
s 21
f 154/190/290 151/184/289 175/208/329 178/214/330
s 12
f 153/187/287 155/191/291 179/215/331 177/211/327
s 1
f 155/191/293 156/192/292 180/216/332 179/215/333
s 21
f 156/192/294 154/188/290 178/212/330 180/216/334
s 22
f 13/13/335 14/14/336 182/218/337 181/217/338
s 13
f 17/17/194 13/13/187 181/217/339 184/219/340
s 22
f 14/14/336 15/15/341 185/220/342 182/218/337
f 15/15/341 16/16/343 187/221/344 185/220/342
s 12
f 16/16/152 18/20/159 188/222/345 187/221/346
s 23
f 20/22/347 19/21/348 190/224/349 189/223/350
s off
f 210/243/351 209/244/352 211/245/353 212/246/354
s 23
f 21/23/355 20/22/347 189/223/350 191/225/356
s off
f 213/247/357 214/248/358 215/249/359 216/250/360
s 23
f 22/24/361 21/23/355 191/225/356 192/226/362
s 24
f 19/21/363 17/17/364 193/228/365 194/227/366
s off
f 17/17/367 184/219/368 195/229/369 193/228/370
s 3
f 184/219/25 190/224/28 196/230/371 195/229/372
s off
f 190/224/373 19/21/374 194/227/375 196/230/376
s 25
f 18/20/377 22/24/378 198/232/379 197/231/380
s off
f 22/24/381 192/226/382 199/233/383 198/232/384
s 3
f 192/226/32 188/222/31 200/234/385 199/233/386
s off
f 188/222/387 18/20/388 197/231/389 200/234/390
s 24
f 194/227/366 193/228/365 201/236/391 202/235/392
s 26
f 193/228/393 195/229/394 203/237/395 201/236/396
s 3
f 195/229/372 196/230/371 204/238/397 203/237/398
s off
f 196/230/399 194/227/400 202/235/401 204/238/402
s 25
f 197/231/380 198/232/379 206/240/403 205/239/404
s off
f 198/232/405 199/233/406 207/241/407 206/240/408
s 3
f 199/233/386 200/234/385 208/242/409 207/241/410
s 27
f 200/234/411 197/231/412 205/239/413 208/242/414
s 24
f 202/235/392 201/236/391 209/244/415 210/243/416
s 26
f 201/236/396 203/237/395 211/245/417 209/244/418
s 3
f 203/237/398 204/238/397 212/246/419 211/245/420
s off
f 204/238/421 202/235/422 210/243/423 212/246/424
s 25
f 205/239/404 206/240/403 214/248/425 213/247/426
s off
f 206/240/427 207/241/428 215/249/429 214/248/430
s 3
f 207/241/410 208/242/409 216/250/431 215/249/432
s 27
f 208/242/414 205/239/413 213/247/433 216/250/434
s off
f 40/42/435 41/43/436 218/252/437 217/251/438
f 41/43/439 45/47/440 219/253/441 218/252/442
f 45/47/443 44/46/444 220/254/445 219/253/446
f 44/46/447 40/42/448 217/251/449 220/254/450
